<?xml version="1.0" encoding="UTF-8" standalone="no"?>
<!DOCTYPE svg PUBLIC "-//W3C//DTD SVG 1.1//EN" "http://www.w3.org/Graphics/SVG/1.1/DTD/svg11.dtd">
<svg version="1.1" xmlns="http://www.w3.org/2000/svg" xmlns:xlink="http://www.w3.org/1999/xlink" preserveAspectRatio="xMidYMid meet" viewBox="0 0 640 640" width="640" height="640"><defs><path d="M284.36 183.6C281.03 180.75 276.12 179.49 274.06 174.1C277.7 174.89 280.71 175.52 283.72 176.16C280.87 172.99 275.8 172.2 274.38 166.81C278.34 167.6 281.66 168.4 284.83 169.03C281.35 166.18 276.12 165.07 274.06 159.52C277.7 160.32 281.03 160.95 284.2 161.58C280.87 158.73 276.12 157.62 274.06 152.24C278.18 153.03 281.5 153.82 285.78 154.77C281.19 151.92 276.44 150.81 274.22 145.74C295.45 153.35 316.2 153.35 336.95 146.38C331.72 153.03 323.96 153.66 316.99 156.67C323.64 155.41 330.46 154.46 337.9 153.19C331.88 160.16 323.64 160.79 316.36 164.12C323.17 162.85 330.14 161.9 336.79 160.63C335.52 164.28 331.56 166.5 316.99 170.3C319.68 170.3 321.74 170.46 323.8 170.3C326.02 170.14 328.08 169.66 330.46 169.03C332.51 168.55 334.57 167.76 337.11 167.76C331.72 174.42 323.96 175.37 316.67 178.22C323.49 177.11 330.3 176 337.58 174.73C336.32 177.43 334.1 178.69 331.72 179.64C329.35 180.59 326.97 181.7 324.44 182.5C321.74 183.29 319.21 183.92 316.51 185.35C323.33 184.24 330.14 183.13 336.95 182.02C337.11 182.18 337.11 182.5 337.43 182.65C334.73 183.92 332.2 185.82 329.5 186.61C319.05 189.94 307.96 190.73 297.03 189.31C290.85 188.51 284.83 186.77 278.81 185.19C277.23 184.71 275.64 183.13 274.06 182.02C274.53 182.5 274.85 182.02 275.01 181.54C278.18 182.18 281.19 182.97 284.36 183.6Z" id="f1jJ1KzTe2"></path><path d="M338.22 488.08C336.32 489.66 335.05 491.41 333.47 491.72C327.13 493.31 320.63 495.37 314.3 496C302.73 497.27 291.17 496.63 280.08 492.36C278.02 491.56 276.12 489.82 274.22 488.71C274.38 488.24 274.69 487.92 274.85 487.45C277.7 488.08 280.71 488.71 283.72 489.35C280.55 486.5 275.8 485.39 274.22 480.32C278.18 481.11 281.66 481.9 284.99 482.53C281.35 479.68 276.28 478.89 274.22 473.03C278.18 473.82 281.19 474.46 284.36 475.09C284.36 474.93 284.51 474.61 284.51 474.46C283.72 473.82 282.61 473.35 281.35 472.55C297.19 472.55 312.71 472.55 328.08 472.55C328.08 472.71 328.24 473.03 328.24 473.19C324.28 474.46 320.32 475.41 316.51 476.67C316.51 476.83 316.51 477.15 316.67 477.47C323.49 476.2 330.3 475.25 336.95 474.14C336.16 477.47 335.52 477.78 317.94 484.59C324.28 483.49 330.77 482.38 336.95 481.27C336.32 484.91 331.09 487.45 316.67 490.93C316.51 491.09 316.67 491.56 316.67 491.72C323.49 490.46 330.3 489.5 338.22 488.08Z" id="eyDGUYw89"></path><path d="M440.87 194.85C441.03 195.01 441.35 195.01 441.5 195.33C440.71 196.44 440.08 197.39 439.29 198.5C420.91 216.08 401.27 232.55 384.16 251.41C355.01 283.25 320.32 307.96 288.79 336.95C286.42 338.69 284.99 338.22 283.25 336.48C335.84 289.11 388.44 242.06 440.87 194.85Z" id="h1AHMuA0lX"></path><path d="M220.04 394.93C220.04 394.57 220.04 391.65 220.04 391.29C235.88 377.03 251.88 362.93 267.72 348.99C270.73 346.46 270.73 346.46 273.74 349.15C255.84 364.36 237.94 379.72 220.04 394.93Z" id="bggBX83Xo"></path><path d="M279.76 142.26C277.86 141.47 276.28 139.41 274.53 137.98C276.12 136.55 277.7 134.65 279.45 133.86C289.9 129.58 301.31 128.63 312.55 129.74C318.73 130.38 324.75 131.96 330.77 133.23C332.04 133.39 333.31 134.02 334.1 134.65C335.37 135.76 336.79 136.87 336.95 138.14C337.11 138.93 335.37 140.83 334.1 140.99C328.55 142.89 322.69 144.48 316.99 145.74C313.66 146.85 309.86 146.69 306.53 146.85C297.03 146.38 288 146.06 279.76 142.26ZM325.23 140.99C327.29 140.51 329.35 138.77 331.25 137.5C329.19 136.24 327.29 134.34 325.07 134.02C315.09 131.49 305.11 131.49 295.13 132.75C291.17 133.23 287.21 134.34 283.56 135.45C282.77 135.6 281.66 136.87 281.5 137.66C281.35 138.3 282.61 139.25 283.41 139.72C285.31 140.51 287.37 141.31 289.43 141.62C294.81 142.42 300.36 143.05 306.85 143.68C312.71 142.89 319.05 142.26 325.23 140.99Z" id="bzQruPqo8"></path><path d="M447.84 207.37C425.19 226.85 396.2 250.14 392.55 251.41C410.46 236.2 428.67 220.83 447.05 205.78C447.21 206.1 447.76 207.21 447.84 207.37Z" id="birameyY3"></path><path d="M453.54 202.14C453.48 201.98 452.97 200.71 452.91 200.55C460.51 194.38 468.12 188.04 475.56 181.54C474.93 183.13 465.58 191.68 453.54 202.14Z" id="b6X5lv1Sm"></path><path d="M448.48 189.62C448.32 189.78 448 190.1 447.84 190.26C447.37 189.78 447.21 189.47 446.73 188.99C447.21 188.83 447.37 188.36 447.84 188.2C448.48 187.72 448.95 187.41 449.43 186.93C449.9 186.46 450.69 185.82 451.01 185.5C452.12 184.71 453.23 183.6 454.34 182.65C454.97 182.02 455.6 181.54 456.24 181.07C456.87 180.44 457.5 179.96 458.14 179.49C458.77 178.85 459.41 178.38 460.04 177.9C462.57 175.84 464.95 173.62 467.64 171.72C468.28 171.25 468.75 170.93 469.23 170.46C469.86 169.98 470.34 169.66 470.81 169.19C471.29 169.03 471.6 168.55 472.08 168.4C472.71 167.92 473.5 167.6 474.14 167.13C475.72 166.18 477.15 165.23 478.89 164.59C468.75 172.83 458.61 181.39 448.48 189.62Z" id="dDmj4uOUr"></path><path d="M327.92 436.28C330.46 435.49 332.67 434.69 334.89 433.74C344.55 430.1 354.69 426.93 364.04 422.34C374.5 417.43 383.05 409.98 388.44 399.37C390.97 394.46 391.92 389.23 391.13 383.05C382.42 392.4 372.12 396.83 361.03 400.16C342.18 405.7 322.85 408.87 303.21 408.08C298.3 407.92 293.23 407.6 288.32 406.97C283.41 406.5 278.34 405.54 273.58 404.91C300.04 406.81 325.86 403.8 351.68 397.62C330.61 393.35 310.34 387.33 291.64 377.03C292.91 377.03 293.86 377.5 294.81 377.82C311.6 385.43 329.35 390.18 347.41 392.87C358.18 394.3 368.48 395.09 377.82 388.12C383.37 383.84 386.69 378.14 388.59 370.38C382.26 374.02 376.4 376.71 370.06 377.19C375.45 374.02 380.51 371.01 385.74 367.84C390.02 365.31 390.34 361.66 389.7 357.54C386.38 358.65 383.52 359.6 380.36 360.71C387.8 354.53 390.65 350.73 390.65 346.3C384.32 352.63 376.87 357.07 368.16 358.65C359.76 360.24 351.05 361.35 342.18 362.77C352.16 366.89 362.46 367.52 372.59 368.79C353.74 370.06 335.84 366.57 318.42 358.65C304 352 275.01 334.42 271.05 329.66C272.95 330.77 274.53 331.56 275.96 332.83C278.5 334.73 280.08 334.42 282.3 332.36C285.47 329.19 289.11 326.34 292.44 323.49C294.34 321.9 296.08 320.16 298.46 318.1C291.64 317.31 285.78 316.67 279.92 315.88C279.92 315.41 279.92 315.25 279.92 314.77C286.26 314.77 292.91 314.77 299.41 314.77C300.67 314.77 302.1 314.77 302.89 314.14C306.85 310.81 310.81 307.49 314.93 303.84C309.7 301.78 305.27 300.2 300.67 298.3C304.95 298.93 309.07 300.51 313.35 301.62C314.93 302.1 317.47 301.62 318.57 300.51C328.87 291.64 339.01 282.77 349.31 273.74C350.73 272.48 352.16 271.05 354.06 269.47C346.77 271.05 340.28 272.79 333.62 273.74C326.97 274.69 320.48 275.17 313.82 275.33C307.17 275.49 300.67 275.33 294.18 275.33C311.29 272.48 328.87 272.16 345.35 266.61C330.93 265.5 317.62 261.23 305.9 252.51C306.69 252.51 307.33 252.67 307.96 253.15C322.38 259.96 337.74 262.81 353.74 261.86C358.5 261.39 363.25 261.23 366.89 257.74C373.07 251.88 379.72 246.18 385.9 240.16C387.49 238.57 388.59 236.04 389.86 233.82C389.7 233.66 389.39 233.35 389.07 233.19C375.29 246.97 357.54 250.77 339.33 253.15C347.25 250.3 355.49 247.76 363.09 244.44C369.43 241.74 375.45 238.26 381.31 234.3C387.33 230.18 390.02 223.84 390.97 216.08C389.86 216.71 389.39 217.19 388.75 217.35C382.57 220.67 376.71 224.63 370.22 226.85C346.46 234.46 322.06 238.42 296.87 237.78C289.9 237.62 282.61 237.31 275.64 236.99C277.7 236.2 279.6 236.2 281.66 236.2C310.02 236.67 337.9 232.87 364.83 224.48C374.18 221.62 383.37 218.14 389.39 209.74C390.5 208.32 390.65 206.42 391.29 204.83C370.06 218.3 346.93 220.04 323.49 221.31C332.51 219.41 341.86 218.14 350.89 216.08C362.46 213.54 373.86 210.22 383.68 203.25C393.35 196.44 393.19 188.99 383.21 182.34C382.57 181.86 381.94 181.54 381.31 181.07C372.59 177.74 363.88 174.42 355.01 171.56C350.89 170.14 346.3 169.98 341.54 168.87C341.54 170.46 341.7 171.72 341.54 172.83C340.91 176.48 342.65 178.06 345.82 179.01C349.31 180.12 352.48 181.7 355.49 183.6C356.75 184.4 358.18 186.46 358.02 187.72C357.86 188.99 355.8 189.94 354.53 191.21C357.7 188.04 358.02 186.61 355.33 185.35C351.21 183.45 346.61 182.02 341.86 180.44C341.23 186.46 337.74 188.83 333.62 190.73C332.04 191.37 330.3 192.16 328.71 192.63C318.42 195.8 307.8 196.28 297.35 195.49C289.27 194.85 281.19 193.9 274.06 189.62C270.1 187.41 268.04 184.24 268.2 179.49C268.36 176.16 268.2 172.83 268.2 169.35C266.93 169.35 266.3 169.19 265.66 169.35C256 171.88 246.18 173.94 236.99 176.95C231.76 178.85 226.85 181.86 222.73 185.35C217.82 189.31 217.82 195.01 222.1 199.76C224.32 202.3 227.01 204.36 230.02 206.1C233.5 208.32 236.99 210.22 240.79 212.12C240.63 212.59 240.32 212.75 240.32 213.23C233.35 210.06 226.53 207.05 218.46 203.72C219.25 209.11 219.25 214.65 221.15 219.41C223.21 225.43 227.01 230.81 229.54 236.36C234.3 246.02 242.38 251.25 252.2 254.1C266.61 258.38 281.5 259.96 296.4 261.07C288 261.23 279.45 261.86 271.05 261.07C262.81 260.44 254.57 258.38 246.02 256.95C261.86 272.63 280.71 283.25 302.26 289.43C265.35 281.98 238.89 260.12 219.72 227.33C218.61 235.72 219.72 243.01 222.26 250.3C229.86 273.27 243.17 291.17 266.3 300.67C244.75 295.45 230.34 281.5 219.88 262.65C219.41 266.3 219.88 269.94 219.41 273.11C218.61 279.76 221.62 284.51 226.38 288.32C229.07 290.53 232.24 292.91 235.41 294.18C241.43 296.4 247.6 298.14 253.62 299.56C258.38 300.67 263.6 301.15 268.36 301.78C273.11 302.57 277.86 303.37 282.61 304.32C260.28 304.95 237.94 305.9 219.56 288.79C219.41 289.9 219.09 290.69 219.09 291.33C219.09 300.2 219.09 309.23 219.09 318.1C219.09 319.37 219.09 320.79 219.72 321.74C223.68 329.66 227.33 337.43 231.92 344.87C235.88 351.52 241.43 356.91 248.08 361.35C254.42 355.8 260.91 350.26 267.25 344.4C255.21 335.68 244.12 326.5 234.46 315.09C244.75 323.33 254.26 331.88 264.4 339.01C274.53 346.14 285.31 352.63 295.76 359.29C291.01 357.7 286.26 355.64 281.98 353.11C280.08 352 278.81 352.32 277.39 353.58C272.63 357.7 267.72 361.82 262.97 365.94C261.7 367.05 260.75 368 259.33 369.27C276.12 380.67 293.86 388.44 312.4 395.09C311.76 395.25 311.13 395.09 310.5 395.09C292.75 391.13 276.44 384 261.07 374.5C258.85 373.07 256.16 371.96 253.78 373.86C246.81 379.41 240.16 385.43 232.71 391.76C237.31 395.72 241.58 399.21 245.7 402.69C245.54 402.85 245.23 403.17 245.07 403.49C240.95 400.79 236.83 398.1 232.71 395.41C231.92 394.77 230.65 394.77 229.54 394.61C229.7 395.72 229.54 397.15 230.18 397.78C232.87 401.27 235.56 404.59 238.42 408.08C238.26 408.24 237.94 408.55 237.78 408.71C233.66 405.23 229.54 401.9 225.43 398.42C221.31 401.11 221.15 401.27 223.84 405.23C226.53 409.19 229.23 413.15 232.55 416.32C245.23 429.15 260.91 436.28 277.54 441.98C283.09 443.88 288.95 445.47 294.65 447.21C266.14 441.66 238.1 435.01 219.88 408.87C219.88 411.41 220.04 413.78 221.15 415.84C227.01 427.56 238.26 432.16 249.66 436.44C237.94 436.28 228.59 431.05 220.36 422.97C218.46 429.94 221.94 439.45 228.44 443.41C233.19 446.26 238.1 448.63 243.17 450.85C247.92 452.91 252.83 454.5 257.9 456.4C244.44 454.81 231.45 452.28 220.67 443.41C222.26 448 225.9 450.38 229.54 452.44C240.32 458.61 252.2 461.47 264.24 463.52C290.69 468.12 317.15 468.12 343.6 464.16C356.59 462.26 369.58 459.25 381.47 452.75C387.8 449.27 392.24 440.08 391.45 431.84C390.18 432.95 389.39 433.9 388.28 434.69C383.52 438.02 379.25 441.98 374.02 444.2C366.73 447.52 358.97 450.06 351.05 452.28C331.09 457.82 310.5 458.93 289.27 456.4C290.06 456.24 290.38 455.92 290.53 455.92C291.8 455.92 293.07 455.92 294.18 455.92C318.89 456.55 342.97 451.8 366.26 443.25C380.36 438.02 388.59 428.51 391.29 414.26C391.92 410.77 391.29 406.97 391.29 403.17C379.25 418.53 374.97 422.02 363.25 427.41C351.21 432.79 334.1 437.07 327.92 436.28ZM373.07 193.43C377.19 191.37 377.35 188.83 373.54 186.46C369.9 183.92 365.62 181.86 361.35 179.8C357.86 178.22 353.9 176.63 350.26 175.21C357.23 175.21 373.86 180.75 378.14 185.66C380.99 188.99 381.31 192.63 377.5 195.01C373.39 197.54 368.63 199.6 363.88 200.87C350.26 204.2 336.48 204.83 322.22 204.51C336 201.98 349.31 199.76 362.61 197.07C366.26 196.44 369.9 195.01 373.07 193.43ZM260.91 192.79C268.2 196.12 275.8 198.81 283.25 201.82C274.85 201.82 266.46 200.24 259.01 195.49C254.73 192.79 253.78 190.26 254.73 187.41C256.63 188.99 258.38 191.68 260.91 192.79ZM233.66 198.81C227.64 194.53 227.8 187.88 234.46 184.4C240.32 181.07 246.81 179.01 253.31 176.48C253.47 176.95 253.78 177.27 253.78 177.74C249.19 180.28 244.44 182.5 240.16 185.35C232.55 190.26 232.71 193.43 240.79 197.54C252.51 203.56 265.19 205.94 278.02 208.63C296.24 212.12 314.61 213.39 332.99 212.28C336.32 212.12 339.33 211.8 342.65 211.64C331.56 214.5 320 215.29 308.44 215.29C287.68 215.29 267.09 212.44 247.29 205.62C242.53 204.04 237.78 201.66 233.66 198.81ZM304.32 439.13C300.67 438.02 297.03 436.59 293.39 435.49C314.61 442.14 336.95 441.66 358.81 443.56C358.81 444.04 358.81 444.36 358.81 444.83C355.01 445.31 351.21 446.1 347.25 446.1C332.51 446.26 318.26 443.25 304.32 439.13Z" id="b2sLGyUW71"></path><path d="M375.29 322.22C385.43 314.93 388.75 311.13 389.07 306.38C382.89 309.7 376.71 313.98 369.9 316.67C352.79 323.49 334.73 325.54 316.36 325.07C314.93 325.07 313.03 324.91 312.08 325.7C305.74 330.93 299.25 336.48 292.44 342.18C294.97 343.29 296.71 344.4 298.61 344.4C315.56 345.19 332.51 345.66 348.99 341.07C355.8 339.17 362.46 336.95 369.27 334.89C350.1 344.55 329.35 348.36 307.96 349.62C317.62 353.9 327.45 357.54 337.27 361.03C338.38 361.5 339.49 361.03 340.59 360.87C347.56 359.45 354.38 357.7 361.5 356.28C373.86 354.06 382.57 346.93 388.12 336C391.45 329.82 393.35 323.17 392.08 316.36C386.38 319.21 380.99 321.27 375.76 323.33C375.6 322.85 375.6 322.69 375.29 322.22Z" id="bk0QXNsdO"></path><path d="M359.92 286.73C357.39 287.52 355.17 288.95 353.27 290.69C348.04 294.81 343.13 299.09 338.22 303.52C337.43 304.16 336.32 304.63 335.37 305.11C336.63 306.38 336.95 306.53 337.27 306.53C349.94 307.64 362.46 308.59 375.29 309.39C375.92 309.39 376.55 309.39 377.19 309.23C385.43 306.06 391.6 295.13 390.02 286.1C384.63 289.58 379.88 294.02 373.23 294.81C376.4 291.96 379.56 289.43 383.21 286.89C389.39 281.5 393.19 275.01 390.65 265.5C383.05 276.91 371.64 282.3 359.92 286.73Z" id="b3zegoGL6W"></path><path d="M241.58 365.78C242.69 366.42 244.28 365.62 245.54 365.31C245.54 364.83 245.54 364.2 245.7 363.88C234.77 355.64 226.85 344.87 220.67 332.67C220.2 337.43 219.88 341.7 220.51 346.3C220.67 349.31 221.94 352.95 224 354.69C229.39 358.97 235.56 362.3 241.58 365.78Z" id="b7mUEIm5Vw"></path><path d="M365.47 313.35C360.24 312.71 355.33 312.24 350.26 311.76C349.15 311.76 348.36 311.92 347.41 312.24C340.12 313.82 332.99 316.2 325.7 317.15C320.79 317.62 318.1 320.32 315.56 323.64C332.67 322.38 349.47 319.68 365.47 313.35Z" id="c4dqdPV3gb"></path><path d="M220.2 357.54C219.09 365.94 221.62 373.86 225.74 381.94C230.65 377.82 234.93 374.02 239.05 370.38C232.71 366.1 226.38 361.98 220.2 357.54Z" id="b1lGxvr5iT"></path><path d="M342.34 311.92C334.1 307.64 331.41 307.8 327.45 313.82C332.83 313.19 337.58 312.55 342.34 311.92Z" id="a5PtTSnrJc"></path><path d="M385.27 264.24C379.56 268.99 373.7 273.74 367.68 278.65C375.13 275.49 381.47 271.37 385.27 264.24Z" id="drqBBsboS"></path><path d="M304.32 439.13C318.42 443.41 332.36 446.57 347.25 446.1C351.21 446.1 355.17 445.31 358.97 444.83C358.97 444.36 358.97 444.04 358.97 443.56C336.95 441.66 314.93 441.98 293.39 435.49C297.03 436.75 300.67 438.02 304.32 439.13Z" id="b1RoYB8Ucv"></path><path d="M437.86 193.58C439.76 192 440.08 190.42 439.45 188.2C439.53 188.38 439.95 189.28 440.71 190.89C439 192.51 438.05 193.4 437.86 193.58Z" id="fsWmiqEM"></path><path d="M515.17 281.19C513.9 281.19 512.32 280.4 511.52 279.6C504.71 272.16 501.07 263.13 499.17 253.15C496.63 240 497.9 226.85 503.29 214.34C508.51 201.98 511.52 189.15 510.26 175.68C509.15 164.91 505.66 155.25 496.63 148.59C484.44 139.72 467.49 141.94 456.08 153.5C448.16 161.43 445.15 171.25 445.78 182.18C445.78 182.81 445.94 183.45 446.26 184.08C446.27 184.11 446.32 184.27 446.42 184.55L446.89 185.66L440.87 191.05C440.11 189.34 439.69 188.39 439.6 188.2C434.69 163.64 449.9 140.83 473.82 136.55C492.2 133.23 509.62 144.48 515.33 163.33C519.92 178.22 518.02 192.79 513.43 207.52C511.21 214.97 507.88 222.26 506.46 229.86C503.29 246.18 506.46 261.23 516.75 274.69C517.39 275.8 518.02 277.39 517.86 278.65C517.7 279.76 516.28 281.19 515.17 281.19Z" id="arM9VUzK"></path><path d="M400 371.01C397.47 371.8 397.31 373.23 397.31 375.6C397.31 374.08 397.31 361.92 397.31 360.4C397.31 361.66 397.47 362.61 397.78 364.67C427.09 351.68 450.22 333.15 461.47 302.89C473.5 271.05 465.58 241.58 450.06 212.44C450.45 212.09 452.4 210.34 455.92 207.21C456.3 208.16 456.51 208.69 456.55 208.79C456.71 209.43 457.03 209.9 457.35 210.69C466.85 228.28 473.66 246.81 474.3 267.09C475.09 302.42 460.2 330.3 433.27 351.84C423.13 359.92 412.2 366.57 400 371.01Z" id="d43ibNYqaP"></path><path d="M332.83 212.12C314.3 212.91 296.08 211.96 277.86 208.48C265.03 205.94 252.51 203.25 240.63 197.39C232.55 193.27 232.4 190.1 240 185.19C244.28 182.34 249.03 179.96 253.62 177.58C253.47 177.11 253.15 176.79 253.15 176.32C246.97 178.85 240.32 180.91 234.3 184.24C227.96 187.88 227.49 194.38 233.5 198.65C237.62 201.5 242.38 203.88 247.13 205.47C266.77 212.28 287.21 215.13 308.12 215.13C319.84 215.45 331.41 214.5 342.5 211.49C339.17 211.49 336.16 211.96 332.83 212.12Z" id="ao2KOqSu8"></path><path d="M377.66 194.69C381.31 192.48 381.15 188.67 378.3 185.35C374.02 180.59 357.7 174.89 350.42 174.89C354.06 176.32 358.02 177.74 361.5 179.49C365.62 181.54 369.74 183.6 373.7 186.14C377.66 188.83 377.35 191.37 373.23 193.11C369.9 194.69 366.42 195.96 362.77 196.75C349.62 199.45 336.16 201.66 322.53 204.04C336.63 204.51 350.42 203.88 364.04 200.55C368.79 199.29 373.54 197.39 377.66 194.69Z" id="d35Jx9cNiG"></path><path d="M283.41 201.82C275.96 198.97 268.51 195.96 261.07 192.79C258.53 191.68 256.79 189.15 254.89 187.41C253.78 190.26 254.73 192.79 259.17 195.49C266.61 200.24 274.85 201.82 283.41 201.82Z" id="k6JjlwZGe"></path><path d="M289.11 141.62C294.65 142.42 300.51 142.89 306.69 143.68C312.55 142.89 318.89 142.26 325.07 140.99C327.13 140.51 329.19 138.77 331.09 137.5C329.03 136.24 327.13 134.34 324.91 134.02C314.93 131.49 304.95 131.49 294.97 132.75C291.01 133.23 287.05 134.34 283.41 135.45C282.61 135.6 281.5 136.87 281.35 137.66C281.19 138.3 282.3 139.25 283.09 139.72C284.99 140.51 287.05 141.31 289.11 141.62Z" id="d2foQDUUnj"></path><path d="M445.78 203.09L440.4 190.89L446.42 185.5C447.08 187.12 447.45 188.02 447.52 188.2C447.05 188.36 446.89 188.83 446.42 188.99C446.89 189.47 447.05 189.78 447.52 190.26C447.68 190.1 448 189.78 448.16 189.62C448.36 190.11 450.01 194.04 450.22 194.53C449.27 195.8 449.27 197.07 451.17 198.81C450.45 199.38 448.65 200.81 445.78 203.09Z" id="j5TvBrqyM"></path><path d="M471.13 165.39C468.28 167.6 465.58 169.98 462.89 172.36C457.66 176.63 452.44 181.07 447.21 185.5C447.05 185.03 446.73 184.71 446.57 184.4C446.61 184.47 446.76 184.84 447.05 185.5C447.71 187.12 448.08 188.02 448.16 188.2C448.79 187.72 449.27 187.41 449.74 186.93C450.38 186.46 451.01 185.82 451.33 185.5C452.44 184.71 453.54 183.6 454.65 182.65C455.29 182.02 455.92 181.54 456.55 181.07C457.19 180.44 457.82 179.96 458.46 179.49C459.09 178.85 459.72 178.38 460.36 177.9C462.89 175.84 465.27 173.62 467.96 171.72C468.59 171.25 469.07 170.93 469.54 170.46C470.18 169.98 470.65 169.66 471.13 169.19C471.6 169.03 471.92 168.55 472.4 168.4C473.03 167.92 473.82 167.6 474.46 167.13C475.88 166.34 477.31 165.54 478.73 164.91C468.59 173.15 458.46 181.7 448.32 189.94C448.52 190.43 450.17 194.36 450.38 194.85C450.53 194.69 450.53 194.69 450.85 194.38C459.09 187.09 467.33 179.64 475.88 172.51C476.99 171.72 478.57 171.25 480 170.61C480.16 170.77 480.48 171.25 480.79 171.41C480.32 172.67 480.16 174.1 479.37 174.73C470.34 182.65 461.15 190.42 452.12 198.02C451.96 198.18 451.64 198.5 451.49 198.65C451.49 198.65 451.49 198.65 451.49 198.65L446.1 202.93L440.71 190.73C439 192.35 438.05 193.25 437.86 193.43C425.82 204.36 413.94 215.29 401.9 226.22C400.63 227.33 399.37 228.28 397.62 229.86C397.47 227.64 397.47 226.22 397.47 224.95C397.47 214.81 397.31 204.67 397.47 194.53C397.62 187.88 394.93 183.13 390.02 179.49C387.17 177.43 384 175.37 380.67 173.94C369.74 168.71 358.18 165.86 346.14 164.28C343.45 163.8 342.81 162.85 342.81 160.63C342.97 154.3 342.65 147.8 342.97 141.62C343.45 135.6 340.75 132.12 335.52 129.9C333.94 129.11 332.04 128.48 330.3 127.84C317.31 124.2 303.84 123.56 290.69 125.94C285.31 127.05 279.92 128.79 274.85 131.17C271.21 132.75 269.31 136.08 269.47 140.51C269.62 145.74 269.47 150.97 269.47 156.2C269.47 163.8 269.47 163.64 261.86 165.07C250.14 167.29 238.57 170.3 227.8 176.16C219.09 181.07 214.81 187.72 214.81 198.18C215.29 260.91 214.97 323.8 214.97 386.38C214.97 386.53 214.97 386.85 214.97 387.01C214.97 390.34 213.7 392.55 211.01 395.09C185.66 417.74 160.16 440.71 134.97 463.84C130.22 468.12 126.26 473.5 121.98 478.57C122.14 479.05 122.61 479.21 122.77 479.68C124.36 479.05 126.26 478.42 127.68 477.47C132.44 474.3 137.35 471.29 141.78 467.8C164.12 449.9 186.14 431.52 208.48 413.31C210.38 411.88 211.96 410.46 214.5 408.55C214.5 410.61 214.65 411.88 214.65 412.83C214.65 421.07 215.13 429.62 214.65 437.86C214.18 446.1 217.5 452.28 224.63 456.08C231.92 459.72 239.52 463.05 247.13 465.74C254.1 467.96 261.54 469.23 268.99 470.97C268.99 475.25 268.99 479.68 268.99 483.96C268.99 491.88 270.57 494.73 278.34 497.11C284.51 499.17 291.17 500.59 297.5 501.23C310.18 502.5 322.69 501.7 334.73 496.63C340.12 494.42 343.13 490.61 342.65 484.44C342.18 479.84 342.65 475.09 342.65 470.65C348.67 469.39 353.74 468.44 358.97 467.17C368.95 464.95 378.46 461.78 387.01 456.24C393.66 451.96 397.15 446.26 397.15 438.02C396.67 417.11 396.99 396.36 396.99 375.45C396.99 373.92 396.99 361.76 396.99 360.24C396.99 326.34 396.99 292.44 396.99 258.38C396.99 255.52 397.78 253.62 400.16 251.72C415.68 239.37 431.21 227.01 446.42 214.5C447.21 213.86 448.32 213.23 449.74 211.96C450.13 211.61 452.09 209.87 455.6 206.73C455.98 207.68 456.2 208.21 456.24 208.32C455.76 206.89 456.4 205.78 457.82 204.36C466.53 196.91 475.25 189.31 483.8 181.86C487.92 178.22 490.46 173.47 490.61 167.76C490.77 164.28 488.4 161.58 484.28 161.43C479.37 160.95 474.77 162.22 471.13 165.39ZM442.61 205.78C437.07 210.38 431.52 215.13 425.82 219.56C417.11 226.85 408.71 233.82 400 241.11C399.21 241.74 398.57 242.22 397.78 242.69C397.62 242.53 397.31 242.06 396.99 241.9C412.2 228.44 427.56 214.81 442.77 201.19C445.47 203.09 444.36 204.36 443.09 205.62C442.99 205.66 442.66 205.77 442.61 205.78ZM441.5 195.49C440.71 196.59 440.08 197.54 439.29 198.65C420.91 216.24 401.27 232.71 384.16 251.56C355.01 283.41 320.32 308.12 288.79 337.11C286.57 339.17 284.83 338.53 283.41 336.95C336 289.43 388.44 242.06 440.87 195.01C441.03 195.17 441.35 195.17 441.5 195.49ZM376.87 309.23C376.24 309.39 375.6 309.7 374.97 309.39C362.3 308.28 349.78 307.49 336.95 306.53C336.48 306.53 336.32 306.38 335.05 305.11C336.16 304.63 337.11 304.32 337.9 303.68C343.13 299.56 348.04 294.97 352.95 290.85C355.01 289.27 357.23 288 359.6 286.89C371.33 282.3 382.73 276.91 390.34 265.66C392.87 275.17 389.07 281.82 382.26 286.89C378.93 289.43 375.6 292.12 372.59 294.81C379.56 294.02 384.32 289.58 389.7 286.1C391.29 295.13 385.11 306.06 376.87 309.23ZM350.1 311.6C355.33 312.08 360.24 312.71 365.31 313.19C349.15 319.52 332.51 322.22 315.41 323.49C318.1 320.16 320.79 317.62 325.54 317.15C332.83 316.2 340.12 313.82 347.25 312.08C348.36 311.92 349.15 311.6 350.1 311.6ZM342.34 311.92C337.58 312.55 332.83 313.19 327.45 313.82C331.41 307.96 334.1 307.64 342.34 311.92ZM385.27 264.24C381.62 271.37 375.13 275.64 367.68 278.65C373.54 273.74 379.41 268.99 385.27 264.24ZM312.87 130.06C319.05 130.69 325.07 132.28 331.09 133.54C332.36 133.7 333.62 134.34 334.42 134.97C335.68 136.08 337.11 137.19 337.27 138.46C337.43 139.25 335.68 141.15 334.42 141.31C328.87 143.21 323.01 144.79 317.31 146.06C313.66 146.85 309.86 146.69 306.85 146.85C297.35 146.38 288.32 146.06 280.08 142.26C278.02 141.47 276.59 139.41 274.85 137.98C276.28 136.71 277.7 134.97 279.76 134.18C290.22 129.9 301.62 128.95 312.87 130.06ZM284.67 169.35C281.19 166.5 275.96 165.39 273.9 159.84C277.54 160.63 280.87 161.27 284.04 161.9C280.71 159.05 275.96 157.94 273.9 152.55C278.02 153.35 281.35 154.14 285.62 155.09C281.03 152.24 276.28 151.13 274.06 146.06C295.29 153.66 316.04 153.66 336.79 146.69C331.56 153.35 323.8 153.98 316.83 156.99C323.49 155.72 330.3 154.77 337.74 153.5C331.72 160.48 323.49 161.11 316.2 164.44C323.01 163.17 329.82 162.22 336.63 160.95C335.37 164.59 331.41 166.81 316.83 170.61C319.52 170.61 321.58 170.77 323.64 170.61C325.86 170.46 327.92 169.98 330.3 169.35C332.36 168.87 334.42 168.08 336.95 168.08C331.56 174.73 323.8 175.68 316.51 178.53C323.33 177.27 330.14 176.32 337.43 175.05C336.16 177.74 333.94 179.01 331.56 179.96C329.35 181.07 326.81 182.02 324.28 182.81C321.58 183.6 319.05 184.24 316.36 185.66C323.17 184.55 329.98 183.45 336.79 182.34C336.95 182.5 336.95 182.81 337.27 182.97C334.57 184.24 332.04 186.14 329.35 186.93C318.89 190.26 307.8 191.05 296.87 189.62C290.69 188.83 284.67 187.09 278.65 185.5C277.07 185.03 275.49 183.45 274.06 182.34C274.22 181.86 274.53 181.7 274.69 181.23C277.86 181.86 280.87 182.65 284.04 183.29C280.71 180.44 275.8 179.33 273.74 173.78C277.39 174.57 280.4 175.21 283.41 175.84C280.55 173.31 275.8 172.51 274.22 167.13C278.18 167.92 281.5 168.71 284.67 169.35ZM220.36 346.46C219.72 342.18 220.2 337.58 220.51 332.83C226.69 345.03 234.61 355.8 245.54 364.04C245.54 364.51 245.54 365.15 245.39 365.47C243.96 365.62 242.22 366.57 241.43 365.94C235.56 362.3 229.39 358.81 224 354.69C221.94 353.11 220.67 349.31 220.36 346.46ZM226.06 381.94C221.94 373.86 219.41 366.1 220.51 357.54C226.53 361.82 232.4 365.94 239.05 370.38C235.09 373.86 230.81 377.82 226.06 381.94ZM153.19 451.33C153.98 450.53 154.61 449.74 155.41 448.79C175.21 431.21 195.01 413.47 214.81 395.88C214.81 396.23 214.81 399.02 214.81 399.37C194.53 416.95 174.1 434.38 153.82 451.96C153.66 451.8 153.35 451.49 153.19 451.33ZM220.04 391.45C235.88 377.19 251.88 363.09 267.72 349.15C270.57 346.46 270.57 346.61 273.58 349.31C255.84 364.51 237.78 379.88 220.04 395.09C220.04 394.36 220.04 391.81 220.04 391.45ZM314.3 496C302.73 497.27 291.17 496.63 280.08 492.36C278.02 491.56 276.12 489.82 274.22 488.71C274.38 488.24 274.69 487.92 274.85 487.45C277.7 488.08 280.87 488.71 283.72 489.35C280.55 486.5 275.8 485.39 274.22 480C278.18 480.79 281.66 481.58 284.99 482.22C281.35 479.37 276.28 478.57 274.22 472.71C278.18 473.5 281.19 474.14 284.36 474.77C284.36 474.61 284.51 474.3 284.51 474.14C283.72 473.5 282.61 473.03 281.35 472.24C286.02 472.24 323.41 472.24 328.08 472.24C328.08 472.4 328.24 472.71 328.24 472.87C324.28 474.14 320.32 475.09 316.51 476.36C316.51 476.51 316.51 476.83 316.67 477.15C323.49 475.88 330.3 474.93 336.95 473.82C336.16 477.15 335.52 477.47 317.94 484.28C324.28 483.17 330.77 482.06 336.95 480.95C336.32 484.59 331.09 487.13 316.67 490.61C316.67 491.09 316.67 491.25 316.67 491.72C323.49 490.46 330.3 489.5 338.22 488.08C336.16 489.66 334.89 491.41 333.47 491.72C327.13 493.31 320.63 495.37 314.3 496ZM366.42 444.36C343.13 452.75 319.05 457.5 294.34 457.03C293.07 457.03 291.8 457.03 290.69 457.03C290.53 457.03 290.22 457.19 289.43 457.5C310.65 460.04 330.93 458.93 351.21 453.39C359.13 451.33 366.73 448.63 374.18 445.31C379.41 443.09 383.68 439.13 388.44 435.8C389.54 435.01 390.34 434.22 391.6 432.95C392.71 441.03 388.12 450.38 381.62 453.86C369.9 460.2 357.07 463.21 343.76 465.27C317.31 468.91 290.85 468.91 264.55 464.32C252.51 462.26 240.63 459.41 229.86 453.23C226.22 451.01 222.57 448.48 220.99 444.2C231.92 452.91 244.91 455.29 258.22 457.19C253.31 455.29 248.24 453.7 243.49 451.64C238.57 449.43 233.5 447.05 228.75 444.2C222.42 440.55 218.61 430.73 220.67 423.76C228.91 431.84 238.26 436.91 249.98 437.23C238.57 432.95 227.33 428.36 221.47 416.63C220.36 414.57 220.2 412.04 220.2 409.66C238.42 435.96 266.46 442.46 294.97 448C289.11 446.42 283.56 444.67 277.86 442.77C261.07 437.39 245.23 430.1 232.87 417.11C229.54 413.78 226.85 409.82 224.16 406.02C221.47 402.06 221.62 401.9 225.74 399.21C229.86 402.69 233.98 406.02 238.1 409.5C238.26 409.35 238.57 409.03 238.73 408.87C236.04 405.39 233.19 402.06 230.5 398.57C229.86 397.78 230.02 396.51 229.86 395.41C230.97 395.56 232.08 395.88 233.03 396.2C237.15 398.89 241.27 401.58 245.39 404.28C245.54 404.12 245.86 403.8 246.02 403.49C241.74 400 237.62 396.51 233.03 392.55C240.48 386.22 247.29 380.36 254.1 374.65C256.32 372.75 259.01 373.86 261.39 375.29C276.59 384.79 293.23 391.76 310.81 395.88C311.45 396.04 312.08 396.04 312.71 395.88C294.34 389.23 276.59 381.15 259.64 370.06C261.07 368.79 262.18 367.52 263.29 366.73C268.04 362.61 272.95 358.5 277.7 354.38C279.29 352.95 280.4 352.95 282.3 353.9C286.89 356.44 291.33 358.5 296.08 360.08C285.62 353.43 274.85 347.09 264.71 339.8C254.57 332.36 245.07 324.12 234.77 315.88C244.44 327.45 255.37 336.48 267.56 345.19C260.91 351.05 254.73 356.28 248.4 362.14C241.74 357.54 236.2 352.16 232.24 345.66C227.64 338.22 224 330.14 220.04 322.53C219.41 321.43 219.41 320 219.41 318.89C219.41 310.02 219.41 300.99 219.41 291.8C219.41 291.17 219.56 290.38 219.88 289.27C238.1 306.38 260.59 305.43 282.93 304.79C278.18 304 273.43 303.21 268.67 302.26C263.76 301.47 258.69 300.99 253.94 300.04C247.76 298.61 241.58 296.87 235.72 294.65C232.4 293.39 229.39 291.17 226.69 288.79C221.94 284.83 218.77 280.4 219.72 273.58C220.2 270.1 219.72 266.61 220.2 263.13C230.65 281.66 244.91 295.76 266.61 301.15C243.49 291.64 230.34 273.74 222.57 250.77C220.04 243.8 219.09 236.51 220.04 227.8C239.21 260.59 265.66 282.46 302.57 289.9C281.35 283.72 262.34 273.11 246.34 257.43C254.73 258.85 263.13 260.91 271.37 261.54C279.76 262.34 288.32 261.7 296.71 261.54C281.82 260.44 266.93 258.85 252.51 254.57C242.38 251.41 234.61 246.5 229.86 236.83C227.17 230.97 223.52 225.74 221.47 219.88C219.88 214.97 219.56 209.58 218.77 204.2C226.85 207.68 233.66 210.85 240.63 213.7C240.79 213.23 241.11 213.07 241.11 212.59C237.62 210.53 233.82 208.95 230.34 206.57C227.49 204.67 224.79 202.61 222.42 200.24C217.82 195.49 217.82 189.94 223.05 185.82C227.33 182.34 232.08 179.17 237.31 177.43C246.65 174.1 256.48 172.2 265.98 169.82C266.61 169.66 267.25 169.82 268.2 169.82C268.2 173.31 268.36 176.63 268.2 179.96C267.72 184.71 270.1 187.88 274.06 190.1C281.35 194.22 289.27 195.33 297.35 195.96C307.8 196.75 318.57 196.12 328.71 193.11C330.3 192.63 332.04 192 333.62 191.21C337.74 189.31 341.23 186.93 341.86 180.91C346.61 182.5 351.21 184.08 355.33 185.82C358.18 187.09 357.86 188.51 354.53 191.68C355.8 190.57 357.86 189.62 358.02 188.2C358.18 186.93 356.75 184.87 355.49 184.08C352.32 182.18 349.15 180.59 345.82 179.49C342.34 178.38 340.59 176.95 341.54 173.31C341.7 172.2 341.54 171.09 341.54 169.35C346.3 170.14 350.89 170.61 355.01 172.04C363.88 174.89 372.59 178.22 381.31 181.54C381.94 181.7 382.57 182.34 383.21 182.81C393.19 189.47 393.35 196.59 383.68 203.72C373.7 210.69 362.46 214.02 350.89 216.55C341.86 218.61 332.51 219.88 323.49 221.78C346.77 220.51 370.22 218.61 391.29 205.31C390.65 206.89 390.5 208.79 389.39 210.22C383.21 218.46 374.18 221.94 364.83 224.95C337.74 233.35 309.86 237.15 281.66 236.67C279.6 236.67 277.7 236.67 275.64 237.47C282.61 237.62 289.9 238.1 296.87 238.26C321.9 238.89 346.46 235.09 370.22 227.33C376.87 225.27 382.57 221.15 388.75 217.82C389.39 217.35 390.02 217.19 390.97 216.55C389.86 224.16 387.33 230.65 381.31 234.77C375.45 238.73 369.58 242.22 363.09 244.91C355.49 248.24 347.25 250.77 339.33 253.62C357.54 251.09 375.29 247.45 389.07 233.66C389.23 233.82 389.54 234.14 389.86 234.3C388.59 236.36 387.64 238.89 385.9 240.63C379.72 246.65 373.07 252.2 366.89 258.22C363.25 261.7 358.5 262.18 353.74 262.34C337.9 263.6 322.53 260.75 307.96 253.62C307.33 253.15 306.69 252.99 305.9 252.99C317.62 261.7 330.61 265.98 345.35 267.09C328.55 272.63 311.29 272.95 294.18 275.8C300.83 275.8 307.33 275.96 313.98 275.8C320.63 275.64 327.13 275.17 333.62 274.22C340.28 273.11 346.61 271.52 354.06 270.1C352.16 272 350.73 273.27 349.31 274.38C339.01 282.77 328.87 291.64 318.42 300.51C317.15 301.62 314.77 301.94 313.19 301.62C309.07 300.51 304.95 299.09 300.51 298.46C305.11 300.36 309.54 301.94 314.77 304C310.65 307.64 306.69 311.29 302.73 314.3C301.94 314.93 300.51 314.93 299.25 314.93C292.91 314.93 286.26 314.93 279.76 314.93C279.76 315.41 279.76 315.56 279.76 316.04C285.78 316.67 291.8 317.47 298.3 318.26C296.08 320.32 294.18 321.9 292.28 323.64C288.95 326.5 285.47 329.5 282.14 332.51C279.92 334.73 278.02 334.73 275.8 332.99C274.38 331.72 272.63 330.93 270.89 329.82C274.85 334.57 303.52 352.16 318.26 358.81C335.37 366.73 353.43 370.22 372.44 368.95C362.3 367.68 352 367.05 342.02 362.93C350.89 361.5 359.6 360.71 368 358.81C376.71 356.91 384.16 352.79 390.5 346.46C390.5 351.21 387.33 354.85 380.2 361.19C383.37 360.08 386.22 359.13 389.54 357.86C390.34 361.98 390.02 365.78 385.58 368.16C380.36 371.33 375.13 374.34 369.9 377.5C376.24 377.03 382.1 374.34 388.44 370.69C386.53 378.61 383.21 384.32 377.66 388.44C368.32 395.41 358.02 394.61 347.25 393.03C329.03 390.34 311.45 385.58 294.65 377.98C293.54 377.5 292.59 377.19 291.49 377.19C310.34 387.49 330.46 393.5 351.52 397.78C325.86 403.96 299.88 407.13 273.43 405.07C278.34 405.7 283.09 406.65 288.16 407.13C293.07 407.6 298.14 407.92 303.05 408.24C322.85 408.87 342.02 406.02 360.87 400.32C371.96 396.99 382.42 392.4 390.97 383.21C391.76 389.39 390.97 394.61 388.28 399.52C382.89 409.98 374.18 417.43 363.88 422.5C354.38 426.77 344.4 430.1 334.73 433.9C332.51 434.69 330.46 435.49 327.76 436.44C333.94 437.54 351.05 433.11 363.09 427.56C374.81 422.18 379.41 418.69 391.6 404.44C391.76 408.08 392.08 411.88 391.45 415.37C388.75 429.78 380.36 439.29 366.42 444.36ZM361.35 356.75C354.38 358.02 347.56 359.92 340.44 361.35C339.33 361.5 338.22 361.82 337.11 361.5C327.29 358.02 317.62 354.38 307.8 350.1C329.35 348.67 349.94 345.19 369.11 335.37C362.3 337.43 355.64 339.64 348.83 341.54C332.36 346.14 315.41 345.66 298.46 344.87C296.55 344.87 294.97 343.45 292.28 342.65C299.25 336.79 305.43 331.25 311.92 326.18C313.03 325.39 314.77 325.54 316.2 325.54C334.57 326.02 352.48 323.96 369.74 317.15C376.55 314.46 382.73 310.18 388.91 306.85C388.44 311.6 385.27 315.72 375.13 322.69C375.29 323.17 375.29 323.33 375.6 323.8C380.83 321.74 386.06 319.52 391.45 317.15C392.87 323.64 391.13 330.3 387.96 336.48C382.42 347.41 373.7 354.38 361.35 356.75ZM446.89 205.62C446.97 205.78 447.6 207.05 447.68 207.21C424.87 226.85 396.2 250.14 392.24 251.41C410.46 236.2 428.51 220.83 446.89 205.62ZM453.07 200.71C460.67 194.38 468.12 188.04 475.72 181.7C474.93 183.45 465.58 192 453.7 202.3C453.58 201.98 453.13 200.87 453.07 200.71Z" id="gsFBflJGh"></path><path d="M124.83 339.33C124.83 342.02 125.15 344.87 126.26 347.72C127.37 350.57 128.95 353.11 131.17 355.17C133.39 357.39 136.08 358.5 139.41 358.5C141.47 358.5 143.37 358.02 144.79 356.91C146.38 355.96 147.64 354.69 148.59 353.11C149.54 351.52 150.34 349.78 150.81 347.88C151.29 345.98 151.45 344.24 151.45 342.34C151.45 339.8 150.97 337.58 149.86 335.84C148.91 334.1 147.64 332.67 146.06 331.41C144.48 330.14 142.73 329.03 140.51 328.08C138.46 327.13 136.4 326.18 134.34 325.23C132.44 324.44 130.06 323.49 127.37 322.22C124.67 320.95 121.98 319.37 119.45 317.47C116.91 315.41 114.85 313.03 112.95 310.02C111.21 307.01 110.42 303.37 110.42 299.09C110.42 296.24 111.21 293.39 112.63 290.53C114.06 287.68 116.28 284.99 118.97 282.61C121.66 280.24 124.99 278.18 128.79 276.75C132.75 275.33 137.03 274.53 141.94 274.53C146.69 274.53 150.65 275.01 153.5 275.8C156.51 276.59 158.73 277.86 160.48 279.13C162.06 280.4 163.17 281.98 163.8 283.56C164.44 285.15 164.75 286.57 164.75 288C164.75 289.43 164.28 290.85 163.49 292.28C162.69 293.7 161.58 294.97 160.48 296.24C159.37 297.35 158.1 298.46 156.83 299.41C155.56 300.2 154.61 300.83 153.82 301.15C154.14 300.2 154.61 298.77 154.93 296.87C155.25 295.13 155.25 293.23 154.61 291.49C154.14 289.74 152.71 288.16 150.5 286.73C148.44 285.47 144.95 284.67 140.2 284.67C137.5 284.67 134.81 285.15 132.28 285.94C129.74 286.73 127.37 288 125.31 289.27C123.41 290.53 121.82 292.12 120.55 293.86C119.45 295.6 118.81 297.35 118.81 299.09C118.81 300.83 119.45 302.42 120.55 303.84C121.82 305.27 123.41 306.69 125.47 307.96C127.52 309.23 129.9 310.5 132.59 311.76C135.29 313.03 138.14 314.3 141.15 315.56C144 316.83 146.85 318.26 149.7 319.68C152.55 321.11 155.09 322.69 157.15 324.59C159.37 326.5 161.27 328.55 162.53 330.93C163.8 333.31 164.59 336 164.59 339.01C164.59 342.34 163.96 345.5 162.69 348.51C161.58 351.52 159.84 354.06 157.47 356.44C155.25 358.65 152.55 360.55 149.39 361.82C146.22 363.25 142.57 363.88 138.46 363.88C134.81 363.88 131.49 363.25 128.32 362.14C125.15 361.03 122.3 359.45 119.92 357.54C117.54 355.64 115.64 353.58 114.22 351.37C112.79 349.15 112.16 346.93 112.16 344.71C112.16 342.34 112.63 340.44 113.74 338.69C114.85 337.11 116.12 335.68 117.7 334.89C119.29 333.94 120.87 333.15 122.46 332.83C124.2 333.31 125.78 333.31 127.05 333.47C125.78 334.57 124.99 336.48 124.83 339.33ZM200.24 309.23C201.35 308.75 202.46 308.59 203.56 308.59C204.83 308.59 205.94 308.75 206.89 309.23C207.84 309.54 208.32 310.18 208.32 310.81C208.32 311.29 208.16 312.4 208.16 314.14C208.16 315.72 208 317.62 207.84 319.84C207.84 322.06 207.68 324.44 207.52 326.81C207.37 329.35 207.21 331.72 207.05 334.26C207.05 336.63 206.89 338.85 206.89 340.75C206.89 342.81 206.89 344.4 206.89 345.5C206.89 346.93 207.05 348.2 207.05 349.31C207.21 350.26 207.37 351.37 207.68 352.32C207.84 353.27 208.32 353.9 208.79 354.38C208.16 354.53 207.52 354.69 206.73 354.85C206.1 354.85 205.47 355.01 204.99 355.01C204.36 355.01 203.72 355.17 203.09 355.17C201.82 355.17 200.55 354.85 199.76 354.38C198.97 353.9 198.5 352.63 198.5 351.05C198.5 350.26 198.5 348.99 198.65 347.25C198.81 345.66 198.97 343.92 199.13 342.02C198.65 343.6 197.86 345.35 197.07 347.09C196.28 348.83 195.33 350.26 194.06 351.68C192.95 352.95 191.68 354.06 190.26 355.01C188.83 355.8 187.25 356.28 185.5 356.28C183.45 356.28 181.54 355.8 179.8 355.01C178.22 354.22 176.79 352.95 175.52 351.37C174.26 349.78 173.31 347.72 172.67 345.35C172.04 342.97 171.88 340.28 172.04 337.27C172.04 334.89 172.04 332.36 172.2 329.82C172.2 327.6 172.36 324.91 172.51 321.9C172.67 318.89 172.99 315.88 173.31 312.71C173.31 312.4 173.94 312.08 174.89 311.6C175.84 311.13 177.11 310.81 178.22 310.5C179.49 310.18 180.75 310.02 181.86 310.18C182.97 310.18 183.92 310.65 184.4 311.6C184.08 313.03 183.6 314.61 183.29 316.67C182.97 318.57 182.5 320.48 182.18 322.53C181.86 324.59 181.7 326.5 181.54 328.55C181.39 330.46 181.39 332.36 181.39 333.94C181.39 335.37 181.39 337.11 181.54 338.85C181.7 340.59 182.02 342.18 182.34 343.76C182.81 345.19 183.45 346.46 184.24 347.56C185.03 348.51 186.14 349.15 187.56 349.15C188.99 349.15 190.42 348.51 191.37 347.25C192.48 345.98 193.58 344.24 194.38 342.18C195.17 340.12 195.8 337.9 196.44 335.21C196.91 332.51 197.39 329.98 197.7 327.29C198.02 324.75 198.34 322.22 198.34 319.84C198.5 317.47 198.65 315.41 198.65 313.82C198.65 313.64 198.65 312.74 198.65 311.13C198.97 310.18 199.5 309.54 200.24 309.23ZM219.25 311.6C220.51 311.13 221.94 310.65 223.37 310.34C224.95 310.02 226.38 309.7 227.64 309.7C228.91 309.7 229.7 309.86 229.7 310.5C229.7 311.6 229.7 313.35 229.54 315.56C229.39 317.62 229.23 320 228.91 322.38C228.75 324.75 228.44 327.13 228.28 329.5C228.12 331.88 227.96 333.78 227.8 335.52C227.64 337.27 227.49 339.17 227.33 341.23C227.17 342.97 227.01 344.87 227.01 346.93C227.01 348.99 227.01 351.21 227.01 353.43C227.01 353.74 226.69 354.22 225.9 354.53C225.11 354.85 224.32 355.17 223.37 355.33C222.42 355.49 221.47 355.64 220.67 355.64C219.88 355.64 219.41 355.49 219.25 355.17C219.09 354.85 218.93 354.38 218.77 353.58C218.61 352.79 218.46 351.68 218.3 350.26C218.14 348.83 217.98 346.93 217.98 344.55C217.98 342.18 217.98 339.33 218.14 336.16C218.46 329.66 218.46 324.59 218.3 321.11C217.66 317.62 217.5 314.93 217.35 313.19C217.35 312.71 217.98 312.24 219.25 311.6ZM230.02 291.33C231.45 292.28 232.08 293.54 232.08 295.13C232.08 296.24 231.76 297.5 231.13 298.46C230.65 299.56 229.86 300.51 229.07 301.47C228.28 302.26 227.17 303.05 226.06 303.52C224.95 304 224 304.16 223.05 304.16C221.78 304.16 220.83 304 220.04 303.52C219.25 303.05 218.61 302.57 218.14 301.94C217.82 301.31 217.5 300.67 217.35 299.88C217.19 299.25 217.19 298.46 217.19 297.82C217.19 297.03 217.35 296.24 217.5 295.29C217.66 294.34 218.14 293.39 218.77 292.59C219.41 291.8 220.2 291.01 221.31 290.53C222.42 290.22 223.84 289.9 225.58 289.9C227.17 289.9 228.59 290.38 230.02 291.33ZM224.16 300.36C224.79 300.04 225.27 299.56 225.74 299.09C226.22 298.61 226.69 298.14 227.01 297.5C227.33 297.03 227.64 296.55 227.64 296.08C227.64 295.45 227.33 295.13 226.69 295.13C226.38 295.13 225.74 295.29 225.11 295.6C224.63 295.92 224 296.24 223.52 296.71C223.05 297.03 222.57 297.5 222.1 298.14C221.78 298.61 221.62 299.09 221.62 299.56C221.62 300.36 221.94 300.83 222.57 300.83C223.05 300.83 223.52 300.67 224.16 300.36Z" id="gArjeFCqE"></path><path d="M253.62 294.18C253.15 293.54 252.51 292.75 252.04 291.8C251.56 290.85 250.93 289.74 250.46 288.48C249.98 286.89 249.5 285.62 249.35 284.51C249.35 283.41 249.35 282.3 249.5 281.5C249.66 280.71 250.14 279.92 250.61 279.13C251.09 278.5 251.88 277.7 252.67 277.07C253.62 276.28 255.37 275.17 257.9 273.74C260.44 272.48 263.29 271.21 266.61 270.42C266.61 270.3 266.61 269.42 266.61 269.31C266.61 268.99 266.61 268.51 266.61 268.2C266.61 267.88 266.77 267.56 266.77 267.25C267.69 266.95 275.04 264.54 275.96 264.24C276.59 264.08 277.23 264.08 278.02 264.24C278.65 264.4 278.97 265.03 278.81 266.3C278.81 266.61 278.81 267.09 278.65 267.41C278.65 267.72 278.65 268.2 278.5 268.67C283.56 268.83 288 269.78 292.12 271.68C296.24 273.58 299.72 276.12 302.73 279.45C305.74 282.61 307.96 286.42 309.7 291.01C311.29 295.45 312.24 300.36 312.24 305.58C312.24 313.35 311.13 320 308.91 325.7C306.69 331.41 303.84 336.32 300.36 340.28C296.87 344.24 292.91 347.41 288.48 349.94C284.04 352.32 279.6 354.06 275.17 355.17C274.69 355.64 273.9 356.28 272.95 356.75C272 357.23 271.05 357.7 269.94 358.18C268.83 358.5 267.72 358.81 266.61 358.97C265.5 359.13 264.55 359.29 263.6 359.13C263.6 358.97 263.6 358.81 263.6 358.5C263.6 358.18 263.76 357.86 263.76 357.7C263.76 357.39 263.76 357.07 263.92 356.75C260.91 356.91 258.22 356.75 256 356.28C255.52 355.96 254.89 355.33 254.42 354.53C254.26 354.22 253.94 353.9 253.78 353.43C253.62 353.11 253.47 352.63 253.31 352.32C253.15 351.68 253.15 350.73 253.31 349.78C257.11 350.26 260.75 350.26 264.4 349.78C264.55 346.46 264.87 342.34 265.03 337.58C265.19 332.67 265.5 327.45 265.66 321.9C265.82 318.57 265.98 315.09 265.98 311.45C266.14 307.64 266.3 304 266.3 300.36C266.3 296.55 266.46 292.91 266.46 289.43C266.46 285.94 266.61 282.61 266.61 279.76C262.81 281.19 259.96 283.41 257.74 286.26C255.84 288.48 255.05 291.64 255.52 295.29C254.89 295.29 254.26 294.81 253.62 294.18ZM275.8 311.29C275.64 316.36 275.49 320.95 275.49 325.54C275.49 329.98 275.49 334.1 275.64 337.74C275.64 341.39 275.8 344.4 275.8 346.93C283.25 344.08 289.27 339.33 293.7 332.67C298.3 326.02 300.51 317.78 300.51 307.64C300.51 303.21 300.04 299.25 298.93 295.76C297.98 292.12 296.4 288.95 294.5 286.42C292.59 283.72 290.22 281.66 287.52 280.24C284.83 278.81 281.82 277.86 278.5 277.7C278.45 277.7 278.07 277.7 278.02 277.7C277.86 280.08 277.54 282.77 277.39 285.78C276.91 288.63 276.75 292.12 276.44 295.92C276.12 301.15 275.96 306.22 275.8 311.29ZM331.09 321.74C331.72 319.84 332.36 318.26 332.83 316.99C333.31 315.56 333.78 314.46 334.26 313.66C334.73 312.4 335.21 311.13 335.84 309.86C336.48 308.59 337.11 307.49 337.74 306.53C338.38 305.43 339.01 304.48 339.49 303.84C339.96 303.21 340.44 302.73 340.91 302.42C341.23 302.26 341.86 302.26 342.97 302.42C344.08 302.57 345.35 302.89 346.77 303.52C348.2 304 349.47 304.79 350.57 305.9C351.84 306.85 352.63 308.12 353.11 309.7C353.58 311.45 353.74 313.82 353.58 316.67C353.43 319.52 353.27 322.53 352.95 325.54C352.79 328.55 352.48 331.41 352.32 334.26C352.32 336.95 352.48 339.01 352.95 340.44C353.27 341.23 353.58 342.02 353.9 342.81C354.22 343.45 354.53 344.08 355.01 344.87C355.49 345.5 355.96 345.98 356.59 346.46C354.38 347.25 352.48 347.88 351.05 348.36C349.78 348.83 348.67 349.15 348.04 349.31C347.25 349.47 346.61 349.62 346.3 349.47C345.66 349.31 345.03 348.67 344.55 347.72C344.08 346.77 343.6 345.35 343.13 343.29C342.97 342.65 342.97 341.54 342.97 339.96C342.97 338.38 343.13 336.63 343.29 334.73C343.45 332.83 343.6 330.77 343.76 328.71C343.92 326.5 344.08 324.44 344.24 322.69C344.4 320.79 344.4 319.21 344.4 317.78C344.4 316.36 344.4 315.41 344.4 314.93C344.08 313.66 343.45 312.71 342.81 312.08C342.18 311.45 341.54 311.45 341.23 311.92C340.28 313.03 339.17 315.09 338.06 317.94C336.95 320.79 335.84 323.8 334.89 327.13C333.94 330.46 332.99 333.62 332.2 336.95C331.56 340.28 331.09 342.97 330.93 345.03C330.93 345.5 330.61 345.98 329.82 346.61C329.19 347.09 328.24 347.56 327.29 347.88C326.5 348.2 325.54 348.51 324.75 348.51C323.96 348.67 323.33 348.51 323.01 348.2C322.85 348.04 322.22 347.41 321.43 346.61C320.79 345.82 320.32 344.24 320.32 342.34C320.16 340.44 320.16 337.74 320.32 334.42C320.48 330.93 320.48 327.45 320.48 323.64C320.48 322.77 320.48 315.8 320.48 314.93C320.48 311.45 320.48 306.53 320.32 300.36C320.32 294.18 320.32 285.78 320.16 275.64C320.95 275.17 321.74 274.85 322.53 274.53C323.17 274.22 323.96 273.9 324.59 273.58C325.23 273.27 326.02 273.11 326.65 272.95C329.98 272.16 331.72 272.16 331.88 272.95C331.88 273.74 331.88 276.28 331.72 280.4C331.72 282.14 331.56 284.51 331.41 287.21C331.25 289.9 331.09 293.23 330.77 297.19C330.61 301.15 330.46 305.74 330.14 310.97C329.5 315.88 329.19 322.06 328.71 328.87C329.66 326.02 330.46 323.64 331.09 321.74ZM396.51 342.97C396.67 343.29 396.99 343.76 397.47 344.08C397.94 344.4 398.42 344.55 399.05 344.71C398.57 345.82 397.94 346.61 397.47 346.93C397.15 347.09 396.83 347.25 396.67 347.41C396.04 347.56 394.93 347.72 393.5 347.72C392.08 347.72 390.65 347.25 389.39 346.46C388.91 346.14 388.44 345.5 388.12 344.71C387.8 344.08 387.33 343.29 387.01 342.18C386.85 341.07 386.53 339.49 386.38 337.74C385.27 340.12 384 342.02 382.57 343.45C381.31 344.71 379.88 345.82 378.61 346.46C377.19 347.25 375.6 347.88 374.02 348.04C372.12 348.2 370.22 347.88 368.32 347.09C366.57 346.3 365.15 345.03 363.88 343.29C362.77 341.54 361.82 339.49 361.19 337.11C360.55 334.73 360.4 331.88 360.55 328.87C360.71 325.7 361.35 322.85 362.46 320.32C363.41 317.78 364.67 315.56 366.1 313.66C367.52 311.76 368.95 310.02 370.53 308.75C372.12 307.33 373.54 306.22 374.97 305.43C376.4 304.48 377.66 303.84 378.77 303.37C379.88 302.89 380.51 302.57 380.83 302.57C381.62 302.42 382.42 302.26 383.05 302.42C383.68 302.42 384.16 302.89 384.63 303.52C384.79 303.68 384.95 304 385.27 304.32C385.43 304.63 385.58 305.11 385.9 305.58C386.06 306.06 386.38 306.53 386.53 307.17C384.63 307.96 382.89 309.07 381.31 310.02C379.72 310.97 378.14 312.24 376.71 313.82C375.45 315.25 374.18 317.15 373.23 319.21C372.28 321.27 371.49 323.96 370.85 326.97C370.06 330.77 370.22 333.94 371.49 336.16C372.75 338.53 374.5 339.49 376.55 339.17C377.82 338.85 379.09 338.06 380.2 336.95C381.15 336 382.26 334.57 383.37 332.67C384.48 330.77 385.58 328.24 386.69 324.91C387.01 320.16 387.33 316.51 387.64 313.82C387.96 311.13 388.28 309.07 388.44 307.64C388.75 306.06 388.91 304.95 389.07 304.32C389.23 304 389.7 303.52 390.5 303.21C391.13 302.89 391.92 302.57 392.87 302.26C393.66 302.1 394.46 301.94 395.25 301.94C395.88 301.94 396.36 301.94 396.67 301.94C396.83 301.94 396.83 303.05 396.83 304.95C396.83 306.69 396.83 309.07 396.67 311.92C396.67 314.61 396.51 317.62 396.36 320.95C396.2 324.12 396.04 327.13 395.88 330.14C395.88 332.99 395.72 335.52 395.72 337.74C395.72 339.49 395.72 340.75 395.88 341.39C396.04 341.86 396.2 342.5 396.51 342.97ZM440.55 342.97C440.71 343.29 441.03 343.76 441.5 344.08C441.98 344.4 442.46 344.55 443.09 344.71C442.61 345.82 441.98 346.61 441.5 346.93C441.19 347.09 440.87 347.25 440.71 347.41C440.08 347.56 438.97 347.72 437.54 347.72C436.12 347.72 434.69 347.25 433.43 346.46C432.95 346.14 432.48 345.5 432.16 344.71C431.84 344.08 431.37 343.29 431.05 342.18C430.89 341.07 430.57 339.49 430.42 337.74C429.31 340.12 428.04 342.02 426.61 343.45C425.35 344.71 423.92 345.82 422.65 346.46C421.23 347.25 419.64 347.88 418.06 348.04C416.16 348.2 414.26 347.88 412.36 347.09C410.61 346.3 409.19 345.03 407.92 343.29C406.81 341.54 405.86 339.49 405.23 337.11C404.59 334.73 404.44 331.88 404.59 328.87C404.75 325.7 405.39 322.85 406.5 320.32C407.45 317.78 408.71 315.56 410.14 313.66C411.56 311.76 412.99 310.02 414.57 308.75C416.16 307.33 417.58 306.22 419.01 305.43C420.44 304.48 421.7 303.84 422.81 303.37C423.92 302.89 424.55 302.57 424.87 302.57C425.66 302.42 426.46 302.26 427.09 302.42C427.72 302.42 428.2 302.89 428.67 303.52C428.83 303.68 428.99 304 429.31 304.32C429.47 304.63 429.62 305.11 429.94 305.58C430.1 306.06 430.42 306.53 430.57 307.17C428.67 307.96 426.93 309.07 425.35 310.02C423.76 310.97 422.18 312.24 420.75 313.82C419.49 315.25 418.22 317.15 417.27 319.21C416.32 321.27 415.52 323.96 414.89 326.97C414.1 330.77 414.26 333.94 415.52 336.16C416.79 338.53 418.38 339.49 420.59 339.17C421.86 338.85 423.13 338.06 424.24 336.95C425.19 336 426.3 334.57 427.41 332.67C428.51 330.77 429.62 328.24 430.73 324.91C431.05 320.16 431.37 316.51 431.68 313.82C432 311.13 432.32 309.07 432.48 307.64C432.79 306.06 432.95 304.95 433.11 304.32C433.27 304 433.74 303.52 434.53 303.21C435.17 302.89 435.96 302.57 436.91 302.26C437.7 302.1 438.5 301.94 439.29 301.94C439.92 301.94 440.4 301.94 440.71 301.94C440.87 301.94 440.87 303.05 440.87 304.95C440.87 306.69 440.87 309.07 440.71 311.92C440.71 314.61 440.55 317.62 440.4 320.95C440.24 324.12 440.08 327.13 439.92 330.14C439.92 332.99 439.76 335.52 439.76 337.74C439.6 339.49 439.76 340.75 439.92 341.39C440.08 341.86 440.24 342.5 440.55 342.97ZM457.82 347.09C456.08 346.3 454.5 344.87 453.07 343.29C451.64 341.54 450.38 339.33 449.43 336.79C448.48 334.1 448 331.09 448 327.6C448 322.38 448.63 318.26 450.06 314.77C451.33 311.29 452.91 308.59 454.81 306.53C456.71 304.48 458.93 302.89 461.15 302.1C463.37 301.31 465.43 300.83 467.33 300.83C469.23 300.83 470.81 301.15 472.08 301.94C473.35 302.57 474.46 303.37 475.41 304.16C475.41 303.94 475.41 302.16 475.41 301.94C475.88 301.62 476.36 301.15 476.99 300.83C477.62 300.51 478.26 300.36 478.89 300.2C479.52 300.04 480.16 299.88 480.95 299.88C481.12 299.88 482.52 299.88 482.69 299.88C483.17 299.88 483.64 300.04 484.12 300.04C484.59 300.04 485.07 300.36 485.23 300.67C484.75 310.97 484.44 319.21 484.12 325.54C483.8 331.88 483.64 336.79 483.49 340.28C483.33 344.4 483.17 347.41 483.01 349.31C482.85 352.63 482.38 355.8 481.74 358.97C481.11 362.3 480 365.15 478.42 367.84C476.99 370.38 474.93 372.44 472.55 374.02C470.18 375.6 467.17 376.4 463.68 376.4C460.67 376.4 458.14 375.76 456.24 374.65C454.5 373.54 453.07 371.96 451.96 370.38C451.01 368.63 450.38 366.89 450.06 364.83C449.74 362.93 449.58 361.19 449.58 359.6C449.58 359.29 449.74 358.65 450.22 357.86C450.69 357.07 451.33 356.28 452.12 355.33C452.91 354.53 454.02 353.9 455.29 353.27C456.55 352.63 457.98 352.32 459.56 352.16C458.93 354.22 458.46 356.12 458.3 357.86C458.14 358.81 458.14 359.76 458.14 360.71C458.14 363.25 458.61 365.47 459.72 367.21C460.67 368.95 462.26 369.74 464.48 369.74C466.69 369.74 468.59 368.79 470.02 366.73C471.45 364.83 472.55 362.61 473.19 359.76C473.98 357.07 474.46 354.22 474.77 351.37C475.09 348.51 475.25 345.98 475.25 343.92C475.25 343.59 475.25 340.93 475.25 340.59C474.77 341.39 474.14 342.34 473.5 343.29C472.87 344.24 472.08 345.03 471.13 345.82C470.18 346.61 469.07 347.25 467.8 347.72C466.06 348.04 464.63 348.36 462.89 348.36C461.31 348.36 459.56 347.88 457.82 347.09ZM463.84 309.07C462.73 310.18 461.62 311.76 460.67 313.82C459.72 315.72 458.93 317.78 458.46 320.32C457.98 322.69 457.66 325.23 457.66 327.6C457.66 329.19 457.66 330.77 457.82 332.36C457.98 333.94 458.46 335.52 458.93 336.95C459.56 338.22 460.36 339.33 461.31 340.28C462.26 341.07 463.52 341.54 465.11 341.54C466.22 341.54 467.33 341.07 468.44 340.12C469.23 339.49 470.18 338.22 470.97 336.79C471.92 335.21 472.71 332.99 473.19 330.14C473.82 330.77 474.3 331.41 474.61 331.88C474.93 332.36 475.25 332.99 475.56 333.47C475.56 332.83 475.72 332.04 475.72 331.25C475.72 330.46 475.88 329.35 475.88 328.4C475.88 326.34 475.72 323.96 475.56 321.58C475.41 319.05 474.93 316.83 474.3 314.77C473.82 312.71 472.87 311.13 471.76 309.7C470.65 307.96 469.39 307.33 467.64 307.33C466.38 307.33 464.95 307.96 463.84 309.07ZM526.89 342.97C527.05 343.29 527.37 343.76 527.84 344.08C528.32 344.4 528.79 344.55 529.43 344.71C528.95 345.82 528.32 346.61 527.84 346.93C527.52 347.09 527.21 347.25 527.05 347.41C526.42 347.56 525.31 347.72 523.88 347.72C522.46 347.72 521.03 347.25 519.76 346.46C519.29 346.14 518.81 345.5 518.5 344.71C518.18 344.08 517.7 343.29 517.39 342.18C517.23 341.07 516.91 339.49 516.75 337.74C515.64 340.12 514.38 342.02 512.95 343.45C511.68 344.71 510.26 345.82 508.99 346.46C507.56 347.25 505.98 347.88 504.4 348.04C502.5 348.2 500.59 347.88 498.69 347.09C496.95 346.3 495.52 345.03 494.26 343.29C493.15 341.54 492.2 339.49 491.56 337.11C490.93 334.73 490.77 331.88 490.93 328.87C491.09 325.7 491.72 322.85 492.83 320.32C493.78 317.78 495.05 315.56 496.48 313.66C497.9 311.76 499.33 310.02 500.91 308.75C502.5 307.33 503.92 306.22 505.35 305.43C506.77 304.48 508.04 303.84 509.15 303.37C510.26 302.89 510.89 302.57 511.21 302.57C512 302.42 512.79 302.26 513.43 302.42C514.06 302.42 514.53 302.89 515.01 303.52C515.17 303.68 515.33 304 515.64 304.32C515.8 304.63 515.96 305.11 516.28 305.58C516.44 306.06 516.75 306.53 516.91 307.17C515.01 307.96 513.27 309.07 511.68 310.02C510.1 310.97 508.51 312.24 507.09 313.82C505.82 315.25 504.55 317.15 503.6 319.21C502.65 321.27 501.86 323.96 501.23 326.97C500.44 330.77 500.59 333.94 501.86 336.16C503.13 338.53 504.87 339.49 506.93 339.17C508.2 338.85 509.47 338.06 510.57 336.95C511.52 336 512.63 334.57 513.74 332.67C514.85 330.77 515.96 328.24 517.07 324.91C517.39 320.16 517.7 316.51 518.02 313.82C518.34 311.13 518.65 309.07 518.81 307.64C519.13 306.06 519.29 304.95 519.45 304.32C519.6 304 520.08 303.52 520.87 303.21C521.5 302.89 522.3 302.57 523.25 302.26C524.04 302.1 524.83 301.94 525.62 301.94C526.26 301.94 526.73 301.94 527.05 301.94C527.21 301.94 527.21 303.05 527.21 304.95C527.21 306.69 527.21 309.07 527.05 311.92C527.05 314.61 526.89 317.62 526.73 320.95C526.57 324.12 526.42 327.13 526.26 330.14C526.26 332.99 526.1 335.52 526.1 337.74C526.1 339.49 526.1 340.75 526.26 341.39C526.42 341.86 526.57 342.5 526.89 342.97Z" id="c28Hfrt5aL"></path></defs><g><g><g><g><use xlink:href="#f1jJ1KzTe2" opacity="1" fill="#ffffff" fill-opacity="1"></use><g><use xlink:href="#f1jJ1KzTe2" opacity="1" fill-opacity="0" stroke="#000000" stroke-width="1" stroke-opacity="0"></use></g></g><g><use xlink:href="#eyDGUYw89" opacity="1" fill="#ffffff" fill-opacity="1"></use><g><use xlink:href="#eyDGUYw89" opacity="1" fill-opacity="0" stroke="#000000" stroke-width="1" stroke-opacity="0"></use></g></g><g><use xlink:href="#h1AHMuA0lX" opacity="1" fill="#f7931e" fill-opacity="1"></use><g><use xlink:href="#h1AHMuA0lX" opacity="1" fill-opacity="0" stroke="#000000" stroke-width="1" stroke-opacity="0"></use></g></g><g><use xlink:href="#bggBX83Xo" opacity="1" fill="#f7931e" fill-opacity="1"></use><g><use xlink:href="#bggBX83Xo" opacity="1" fill-opacity="0" stroke="#000000" stroke-width="1" stroke-opacity="0"></use></g></g><g><use xlink:href="#bzQruPqo8" opacity="1" fill="#ffffff" fill-opacity="1"></use><g><use xlink:href="#bzQruPqo8" opacity="1" fill-opacity="0" stroke="#000000" stroke-width="1" stroke-opacity="0"></use></g></g><g><use xlink:href="#birameyY3" opacity="1" fill="#f7931e" fill-opacity="1"></use><g><use xlink:href="#birameyY3" opacity="1" fill-opacity="0" stroke="#000000" stroke-width="1" stroke-opacity="0"></use></g></g><g><use xlink:href="#b6X5lv1Sm" opacity="1" fill="#f7931e" fill-opacity="1"></use><g><use xlink:href="#b6X5lv1Sm" opacity="1" fill-opacity="0" stroke="#000000" stroke-width="1" stroke-opacity="0"></use></g></g><g><use xlink:href="#dDmj4uOUr" opacity="1" fill="#f7931e" fill-opacity="1"></use><g><use xlink:href="#dDmj4uOUr" opacity="1" fill-opacity="0" stroke="#000000" stroke-width="1" stroke-opacity="0"></use></g></g><g><use xlink:href="#b2sLGyUW71" opacity="1" fill="#fdd451" fill-opacity="1"></use><g><use xlink:href="#b2sLGyUW71" opacity="1" fill-opacity="0" stroke="#000000" stroke-width="1" stroke-opacity="0"></use></g></g><g><use xlink:href="#bk0QXNsdO" opacity="1" fill="#fdd451" fill-opacity="1"></use><g><use xlink:href="#bk0QXNsdO" opacity="1" fill-opacity="0" stroke="#000000" stroke-width="1" stroke-opacity="0"></use></g></g><g><use xlink:href="#b3zegoGL6W" opacity="1" fill="#fdd451" fill-opacity="1"></use><g><use xlink:href="#b3zegoGL6W" opacity="1" fill-opacity="0" stroke="#000000" stroke-width="1" stroke-opacity="0"></use></g></g><g><use xlink:href="#b7mUEIm5Vw" opacity="1" fill="#fdd451" fill-opacity="1"></use><g><use xlink:href="#b7mUEIm5Vw" opacity="1" fill-opacity="0" stroke="#000000" stroke-width="1" stroke-opacity="0"></use></g></g><g><use xlink:href="#c4dqdPV3gb" opacity="1" fill="#fdd451" fill-opacity="1"></use><g><use xlink:href="#c4dqdPV3gb" opacity="1" fill-opacity="0" stroke="#000000" stroke-width="1" stroke-opacity="0"></use></g></g><g><use xlink:href="#b1lGxvr5iT" opacity="1" fill="#fdd451" fill-opacity="1"></use><g><use xlink:href="#b1lGxvr5iT" opacity="1" fill-opacity="0" stroke="#000000" stroke-width="1" stroke-opacity="0"></use></g></g><g><use xlink:href="#a5PtTSnrJc" opacity="1" fill="#fdd451" fill-opacity="1"></use><g><use xlink:href="#a5PtTSnrJc" opacity="1" fill-opacity="0" stroke="#000000" stroke-width="1" stroke-opacity="0"></use></g></g><g><use xlink:href="#drqBBsboS" opacity="1" fill="#fdd451" fill-opacity="1"></use><g><use xlink:href="#drqBBsboS" opacity="1" fill-opacity="0" stroke="#000000" stroke-width="1" stroke-opacity="0"></use></g></g><g><use xlink:href="#b1RoYB8Ucv" opacity="1" fill="#1f12b8" fill-opacity="1"></use><g><use xlink:href="#b1RoYB8Ucv" opacity="1" fill-opacity="0" stroke="#000000" stroke-width="1" stroke-opacity="0"></use></g></g><g><use xlink:href="#fsWmiqEM" opacity="1" fill="#fd7e14" fill-opacity="1"></use><g><use xlink:href="#fsWmiqEM" opacity="1" fill-opacity="0" stroke="#000000" stroke-width="1" stroke-opacity="0"></use></g></g><g><use xlink:href="#arM9VUzK" opacity="1" fill="#fdd451" fill-opacity="1"></use><g><use xlink:href="#arM9VUzK" opacity="1" fill-opacity="0" stroke="#000000" stroke-width="1" stroke-opacity="0"></use></g></g><g><use xlink:href="#d43ibNYqaP" opacity="1" fill="#fdd451" fill-opacity="1"></use><g><use xlink:href="#d43ibNYqaP" opacity="1" fill-opacity="0" stroke="#000000" stroke-width="1" stroke-opacity="0"></use></g></g><g><use xlink:href="#ao2KOqSu8" opacity="1" fill="#1f12b8" fill-opacity="1"></use><g><use xlink:href="#ao2KOqSu8" opacity="1" fill-opacity="0" stroke="#000000" stroke-width="1" stroke-opacity="0"></use></g></g><g><use xlink:href="#d35Jx9cNiG" opacity="1" fill="#1f12b8" fill-opacity="1"></use><g><use xlink:href="#d35Jx9cNiG" opacity="1" fill-opacity="0" stroke="#000000" stroke-width="1" stroke-opacity="0"></use></g></g><g><use xlink:href="#k6JjlwZGe" opacity="1" fill="#1f12b8" fill-opacity="1"></use><g><use xlink:href="#k6JjlwZGe" opacity="1" fill-opacity="0" stroke="#000000" stroke-width="1" stroke-opacity="0"></use></g></g><g><use xlink:href="#d2foQDUUnj" opacity="1" fill="#1f12b8" fill-opacity="1"></use><g><use xlink:href="#d2foQDUUnj" opacity="1" fill-opacity="0" stroke="#000000" stroke-width="1" stroke-opacity="0"></use></g></g><g><use xlink:href="#j5TvBrqyM" opacity="1" fill="#fdd451" fill-opacity="1"></use><g><use xlink:href="#j5TvBrqyM" opacity="1" fill-opacity="0" stroke="#000000" stroke-width="1" stroke-opacity="0"></use></g></g><g><use xlink:href="#gsFBflJGh" opacity="1" fill="#1f12b8" fill-opacity="1"></use><g><use xlink:href="#gsFBflJGh" opacity="1" fill-opacity="0" stroke="#000000" stroke-width="1" stroke-opacity="0"></use></g></g></g><g><g><g><filter id="shadow9760327" x="101.42" y="265.53" width="140.66" height="108.35" filterUnits="userSpaceOnUse" primitiveUnits="userSpaceOnUse"><feFlood></feFlood><feComposite in2="SourceAlpha" operator="in"></feComposite><feGaussianBlur stdDeviation="1"></feGaussianBlur><feOffset dx="1" dy="1" result="afterOffset"></feOffset><feFlood flood-color="#000000" flood-opacity="0.75"></feFlood><feComposite in2="afterOffset" operator="in"></feComposite><feMorphology operator="dilate" radius="1"></feMorphology><feComposite in2="SourceAlpha" operator="out"></feComposite></filter><path d="M124.83 339.33C124.83 342.02 125.15 344.87 126.26 347.72C127.37 350.57 128.95 353.11 131.17 355.17C133.39 357.39 136.08 358.5 139.41 358.5C141.47 358.5 143.37 358.02 144.79 356.91C146.38 355.96 147.64 354.69 148.59 353.11C149.54 351.52 150.34 349.78 150.81 347.88C151.29 345.98 151.45 344.24 151.45 342.34C151.45 339.8 150.97 337.58 149.86 335.84C148.91 334.1 147.64 332.67 146.06 331.41C144.48 330.14 142.73 329.03 140.51 328.08C138.46 327.13 136.4 326.18 134.34 325.23C132.44 324.44 130.06 323.49 127.37 322.22C124.67 320.95 121.98 319.37 119.45 317.47C116.91 315.41 114.85 313.03 112.95 310.02C111.21 307.01 110.42 303.37 110.42 299.09C110.42 296.24 111.21 293.39 112.63 290.53C114.06 287.68 116.28 284.99 118.97 282.61C121.66 280.24 124.99 278.18 128.79 276.75C132.75 275.33 137.03 274.53 141.94 274.53C146.69 274.53 150.65 275.01 153.5 275.8C156.51 276.59 158.73 277.86 160.48 279.13C162.06 280.4 163.17 281.98 163.8 283.56C164.44 285.15 164.75 286.57 164.75 288C164.75 289.43 164.28 290.85 163.49 292.28C162.69 293.7 161.58 294.97 160.48 296.24C159.37 297.35 158.1 298.46 156.83 299.41C155.56 300.2 154.61 300.83 153.82 301.15C154.14 300.2 154.61 298.77 154.93 296.87C155.25 295.13 155.25 293.23 154.61 291.49C154.14 289.74 152.71 288.16 150.5 286.73C148.44 285.47 144.95 284.67 140.2 284.67C137.5 284.67 134.81 285.15 132.28 285.94C129.74 286.73 127.37 288 125.31 289.27C123.41 290.53 121.82 292.12 120.55 293.86C119.45 295.6 118.81 297.35 118.81 299.09C118.81 300.83 119.45 302.42 120.55 303.84C121.82 305.27 123.41 306.69 125.47 307.96C127.52 309.23 129.9 310.5 132.59 311.76C135.29 313.03 138.14 314.3 141.15 315.56C144 316.83 146.85 318.26 149.7 319.68C152.55 321.11 155.09 322.69 157.15 324.59C159.37 326.5 161.27 328.55 162.53 330.93C163.8 333.31 164.59 336 164.59 339.01C164.59 342.34 163.96 345.5 162.69 348.51C161.58 351.52 159.84 354.06 157.47 356.44C155.25 358.65 152.55 360.55 149.39 361.82C146.22 363.25 142.57 363.88 138.46 363.88C134.81 363.88 131.49 363.25 128.32 362.14C125.15 361.03 122.3 359.45 119.92 357.54C117.54 355.64 115.64 353.58 114.22 351.37C112.79 349.15 112.16 346.93 112.16 344.71C112.16 342.34 112.63 340.44 113.74 338.69C114.85 337.11 116.12 335.68 117.7 334.89C119.29 333.94 120.87 333.15 122.46 332.83C124.2 333.31 125.78 333.31 127.05 333.47C125.78 334.57 124.99 336.48 124.83 339.33ZM200.24 309.23C201.35 308.75 202.46 308.59 203.56 308.59C204.83 308.59 205.94 308.75 206.89 309.23C207.84 309.54 208.32 310.18 208.32 310.81C208.32 311.29 208.16 312.4 208.16 314.14C208.16 315.72 208 317.62 207.84 319.84C207.84 322.06 207.68 324.44 207.52 326.81C207.37 329.35 207.21 331.72 207.05 334.26C207.05 336.63 206.89 338.85 206.89 340.75C206.89 342.81 206.89 344.4 206.89 345.5C206.89 346.93 207.05 348.2 207.05 349.31C207.21 350.26 207.37 351.37 207.68 352.32C207.84 353.27 208.32 353.9 208.79 354.38C208.16 354.53 207.52 354.69 206.73 354.85C206.1 354.85 205.47 355.01 204.99 355.01C204.36 355.01 203.72 355.17 203.09 355.17C201.82 355.17 200.55 354.85 199.76 354.38C198.97 353.9 198.5 352.63 198.5 351.05C198.5 350.26 198.5 348.99 198.65 347.25C198.81 345.66 198.97 343.92 199.13 342.02C198.65 343.6 197.86 345.35 197.07 347.09C196.28 348.83 195.33 350.26 194.06 351.68C192.95 352.95 191.68 354.06 190.26 355.01C188.83 355.8 187.25 356.28 185.5 356.28C183.45 356.28 181.54 355.8 179.8 355.01C178.22 354.22 176.79 352.95 175.52 351.37C174.26 349.78 173.31 347.72 172.67 345.35C172.04 342.97 171.88 340.28 172.04 337.27C172.04 334.89 172.04 332.36 172.2 329.82C172.2 327.6 172.36 324.91 172.51 321.9C172.67 318.89 172.99 315.88 173.31 312.71C173.31 312.4 173.94 312.08 174.89 311.6C175.84 311.13 177.11 310.81 178.22 310.5C179.49 310.18 180.75 310.02 181.86 310.18C182.97 310.18 183.92 310.65 184.4 311.6C184.08 313.03 183.6 314.61 183.29 316.67C182.97 318.57 182.5 320.48 182.18 322.53C181.86 324.59 181.7 326.5 181.54 328.55C181.39 330.46 181.39 332.36 181.39 333.94C181.39 335.37 181.39 337.11 181.54 338.85C181.7 340.59 182.02 342.18 182.34 343.76C182.81 345.19 183.45 346.46 184.24 347.56C185.03 348.51 186.14 349.15 187.56 349.15C188.99 349.15 190.42 348.51 191.37 347.25C192.48 345.98 193.58 344.24 194.38 342.18C195.17 340.12 195.8 337.9 196.44 335.21C196.91 332.51 197.39 329.98 197.7 327.29C198.02 324.75 198.34 322.22 198.34 319.84C198.5 317.47 198.65 315.41 198.65 313.82C198.65 313.64 198.65 312.74 198.65 311.13C198.97 310.18 199.5 309.54 200.24 309.23ZM219.25 311.6C220.51 311.13 221.94 310.65 223.37 310.34C224.95 310.02 226.38 309.7 227.64 309.7C228.91 309.7 229.7 309.86 229.7 310.5C229.7 311.6 229.7 313.35 229.54 315.56C229.39 317.62 229.23 320 228.91 322.38C228.75 324.75 228.44 327.13 228.28 329.5C228.12 331.88 227.96 333.78 227.8 335.52C227.64 337.27 227.49 339.17 227.33 341.23C227.17 342.97 227.01 344.87 227.01 346.93C227.01 348.99 227.01 351.21 227.01 353.43C227.01 353.74 226.69 354.22 225.9 354.53C225.11 354.85 224.32 355.17 223.37 355.33C222.42 355.49 221.47 355.64 220.67 355.64C219.88 355.64 219.41 355.49 219.25 355.17C219.09 354.85 218.93 354.38 218.77 353.58C218.61 352.79 218.46 351.68 218.3 350.26C218.14 348.83 217.98 346.93 217.98 344.55C217.98 342.18 217.98 339.33 218.14 336.16C218.46 329.66 218.46 324.59 218.3 321.11C217.66 317.62 217.5 314.93 217.35 313.19C217.35 312.71 217.98 312.24 219.25 311.6ZM230.02 291.33C231.45 292.28 232.08 293.54 232.08 295.13C232.08 296.24 231.76 297.5 231.13 298.46C230.65 299.56 229.86 300.51 229.07 301.47C228.28 302.26 227.17 303.05 226.06 303.52C224.95 304 224 304.16 223.05 304.16C221.78 304.16 220.83 304 220.04 303.52C219.25 303.05 218.61 302.57 218.14 301.94C217.82 301.31 217.5 300.67 217.35 299.88C217.19 299.25 217.19 298.46 217.19 297.82C217.19 297.03 217.35 296.24 217.5 295.29C217.66 294.34 218.14 293.39 218.77 292.59C219.41 291.8 220.2 291.01 221.31 290.53C222.42 290.22 223.84 289.9 225.58 289.9C227.17 289.9 228.59 290.38 230.02 291.33ZM224.16 300.36C224.79 300.04 225.27 299.56 225.74 299.09C226.22 298.61 226.69 298.14 227.01 297.5C227.33 297.03 227.64 296.55 227.64 296.08C227.64 295.45 227.33 295.13 226.69 295.13C226.38 295.13 225.74 295.29 225.11 295.6C224.63 295.92 224 296.24 223.52 296.71C223.05 297.03 222.57 297.5 222.1 298.14C221.78 298.61 221.62 299.09 221.62 299.56C221.62 300.36 221.94 300.83 222.57 300.83C223.05 300.83 223.52 300.67 224.16 300.36Z" id="e23z4IIie" fill="white" fill-opacity="1" filter="url(#shadow9760327)"></path></g><use xlink:href="#gArjeFCqE" opacity="1" fill="#c1272d" fill-opacity="1"></use></g><g><g><filter id="shadow13328177" x="240.35" y="255.12" width="299.08" height="131.28" filterUnits="userSpaceOnUse" primitiveUnits="userSpaceOnUse"><feFlood></feFlood><feComposite in2="SourceAlpha" operator="in"></feComposite><feGaussianBlur stdDeviation="1"></feGaussianBlur><feOffset dx="1" dy="1" result="afterOffset"></feOffset><feFlood flood-color="#000000" flood-opacity="0.75"></feFlood><feComposite in2="afterOffset" operator="in"></feComposite><feMorphology operator="dilate" radius="1"></feMorphology><feComposite in2="SourceAlpha" operator="out"></feComposite></filter><path d="M253.62 294.18C253.15 293.54 252.51 292.75 252.04 291.8C251.56 290.85 250.93 289.74 250.46 288.48C249.98 286.89 249.5 285.62 249.35 284.51C249.35 283.41 249.35 282.3 249.5 281.5C249.66 280.71 250.14 279.92 250.61 279.13C251.09 278.5 251.88 277.7 252.67 277.07C253.62 276.28 255.37 275.17 257.9 273.74C260.44 272.48 263.29 271.21 266.61 270.42C266.61 270.3 266.61 269.42 266.61 269.31C266.61 268.99 266.61 268.51 266.61 268.2C266.61 267.88 266.77 267.56 266.77 267.25C267.69 266.95 275.04 264.54 275.96 264.24C276.59 264.08 277.23 264.08 278.02 264.24C278.65 264.4 278.97 265.03 278.81 266.3C278.81 266.61 278.81 267.09 278.65 267.41C278.65 267.72 278.65 268.2 278.5 268.67C283.56 268.83 288 269.78 292.12 271.68C296.24 273.58 299.72 276.12 302.73 279.45C305.74 282.61 307.96 286.42 309.7 291.01C311.29 295.45 312.24 300.36 312.24 305.58C312.24 313.35 311.13 320 308.91 325.7C306.69 331.41 303.84 336.32 300.36 340.28C296.87 344.24 292.91 347.41 288.48 349.94C284.04 352.32 279.6 354.06 275.17 355.17C274.69 355.64 273.9 356.28 272.95 356.75C272 357.23 271.05 357.7 269.94 358.18C268.83 358.5 267.72 358.81 266.61 358.97C265.5 359.13 264.55 359.29 263.6 359.13C263.6 358.97 263.6 358.81 263.6 358.5C263.6 358.18 263.76 357.86 263.76 357.7C263.76 357.39 263.76 357.07 263.92 356.75C260.91 356.91 258.22 356.75 256 356.28C255.52 355.96 254.89 355.33 254.42 354.53C254.26 354.22 253.94 353.9 253.78 353.43C253.62 353.11 253.47 352.63 253.31 352.32C253.15 351.68 253.15 350.73 253.31 349.78C257.11 350.26 260.75 350.26 264.4 349.78C264.55 346.46 264.87 342.34 265.03 337.58C265.19 332.67 265.5 327.45 265.66 321.9C265.82 318.57 265.98 315.09 265.98 311.45C266.14 307.64 266.3 304 266.3 300.36C266.3 296.55 266.46 292.91 266.46 289.43C266.46 285.94 266.61 282.61 266.61 279.76C262.81 281.19 259.96 283.41 257.74 286.26C255.84 288.48 255.05 291.64 255.52 295.29C254.89 295.29 254.26 294.81 253.62 294.18ZM275.8 311.29C275.64 316.36 275.49 320.95 275.49 325.54C275.49 329.98 275.49 334.1 275.64 337.74C275.64 341.39 275.8 344.4 275.8 346.93C283.25 344.08 289.27 339.33 293.7 332.67C298.3 326.02 300.51 317.78 300.51 307.64C300.51 303.21 300.04 299.25 298.93 295.76C297.98 292.12 296.4 288.95 294.5 286.42C292.59 283.72 290.22 281.66 287.52 280.24C284.83 278.81 281.82 277.86 278.5 277.7C278.45 277.7 278.07 277.7 278.02 277.7C277.86 280.08 277.54 282.77 277.39 285.78C276.91 288.63 276.75 292.12 276.44 295.92C276.12 301.15 275.96 306.22 275.8 311.29ZM331.09 321.74C331.72 319.84 332.36 318.26 332.83 316.99C333.31 315.56 333.78 314.46 334.26 313.66C334.73 312.4 335.21 311.13 335.84 309.86C336.48 308.59 337.11 307.49 337.74 306.53C338.38 305.43 339.01 304.48 339.49 303.84C339.96 303.21 340.44 302.73 340.91 302.42C341.23 302.26 341.86 302.26 342.97 302.42C344.08 302.57 345.35 302.89 346.77 303.52C348.2 304 349.47 304.79 350.57 305.9C351.84 306.85 352.63 308.12 353.11 309.7C353.58 311.45 353.74 313.82 353.58 316.67C353.43 319.52 353.27 322.53 352.95 325.54C352.79 328.55 352.48 331.41 352.32 334.26C352.32 336.95 352.48 339.01 352.95 340.44C353.27 341.23 353.58 342.02 353.9 342.81C354.22 343.45 354.53 344.08 355.01 344.87C355.49 345.5 355.96 345.98 356.59 346.46C354.38 347.25 352.48 347.88 351.05 348.36C349.78 348.83 348.67 349.15 348.04 349.31C347.25 349.47 346.61 349.62 346.3 349.47C345.66 349.31 345.03 348.67 344.55 347.72C344.08 346.77 343.6 345.35 343.13 343.29C342.97 342.65 342.97 341.54 342.97 339.96C342.97 338.38 343.13 336.63 343.29 334.73C343.45 332.83 343.6 330.77 343.76 328.71C343.92 326.5 344.08 324.44 344.24 322.69C344.4 320.79 344.4 319.21 344.4 317.78C344.4 316.36 344.4 315.41 344.4 314.93C344.08 313.66 343.45 312.71 342.81 312.08C342.18 311.45 341.54 311.45 341.23 311.92C340.28 313.03 339.17 315.09 338.06 317.94C336.95 320.79 335.84 323.8 334.89 327.13C333.94 330.46 332.99 333.62 332.2 336.95C331.56 340.28 331.09 342.97 330.93 345.03C330.93 345.5 330.61 345.98 329.82 346.61C329.19 347.09 328.24 347.56 327.29 347.88C326.5 348.2 325.54 348.51 324.75 348.51C323.96 348.67 323.33 348.51 323.01 348.2C322.85 348.04 322.22 347.41 321.43 346.61C320.79 345.82 320.32 344.24 320.32 342.34C320.16 340.44 320.16 337.74 320.32 334.42C320.48 330.93 320.48 327.45 320.48 323.64C320.48 322.77 320.48 315.8 320.48 314.93C320.48 311.45 320.48 306.53 320.32 300.36C320.32 294.18 320.32 285.78 320.16 275.64C320.95 275.17 321.74 274.85 322.53 274.53C323.17 274.22 323.96 273.9 324.59 273.58C325.23 273.27 326.02 273.11 326.65 272.95C329.98 272.16 331.72 272.16 331.88 272.95C331.88 273.74 331.88 276.28 331.72 280.4C331.72 282.14 331.56 284.51 331.41 287.21C331.25 289.9 331.09 293.23 330.77 297.19C330.61 301.15 330.46 305.74 330.14 310.97C329.5 315.88 329.19 322.06 328.71 328.87C329.66 326.02 330.46 323.64 331.09 321.74ZM396.51 342.97C396.67 343.29 396.99 343.76 397.47 344.08C397.94 344.4 398.42 344.55 399.05 344.71C398.57 345.82 397.94 346.61 397.47 346.93C397.15 347.09 396.83 347.25 396.67 347.41C396.04 347.56 394.93 347.72 393.5 347.72C392.08 347.72 390.65 347.25 389.39 346.46C388.91 346.14 388.44 345.5 388.12 344.71C387.8 344.08 387.33 343.29 387.01 342.18C386.85 341.07 386.53 339.49 386.38 337.74C385.27 340.12 384 342.02 382.57 343.45C381.31 344.71 379.88 345.82 378.61 346.46C377.19 347.25 375.6 347.88 374.02 348.04C372.12 348.2 370.22 347.88 368.32 347.09C366.57 346.3 365.15 345.03 363.88 343.29C362.77 341.54 361.82 339.49 361.19 337.11C360.55 334.73 360.4 331.88 360.55 328.87C360.71 325.7 361.35 322.85 362.46 320.32C363.41 317.78 364.67 315.56 366.1 313.66C367.52 311.76 368.95 310.02 370.53 308.75C372.12 307.33 373.54 306.22 374.97 305.43C376.4 304.48 377.66 303.84 378.77 303.37C379.88 302.89 380.51 302.57 380.83 302.57C381.62 302.42 382.42 302.26 383.05 302.42C383.68 302.42 384.16 302.89 384.63 303.52C384.79 303.68 384.95 304 385.27 304.32C385.43 304.63 385.58 305.11 385.9 305.58C386.06 306.06 386.38 306.53 386.53 307.17C384.63 307.96 382.89 309.07 381.31 310.02C379.72 310.97 378.14 312.24 376.71 313.82C375.45 315.25 374.18 317.15 373.23 319.21C372.28 321.27 371.49 323.96 370.85 326.97C370.06 330.77 370.22 333.94 371.49 336.16C372.75 338.53 374.5 339.49 376.55 339.17C377.82 338.85 379.09 338.06 380.2 336.95C381.15 336 382.26 334.57 383.37 332.67C384.48 330.77 385.58 328.24 386.69 324.91C387.01 320.16 387.33 316.51 387.64 313.82C387.96 311.13 388.28 309.07 388.44 307.64C388.75 306.06 388.91 304.95 389.07 304.32C389.23 304 389.7 303.52 390.5 303.21C391.13 302.89 391.92 302.57 392.87 302.26C393.66 302.1 394.46 301.94 395.25 301.94C395.88 301.94 396.36 301.94 396.67 301.94C396.83 301.94 396.83 303.05 396.83 304.95C396.83 306.69 396.83 309.07 396.67 311.92C396.67 314.61 396.51 317.62 396.36 320.95C396.2 324.12 396.04 327.13 395.88 330.14C395.88 332.99 395.72 335.52 395.72 337.74C395.72 339.49 395.72 340.75 395.88 341.39C396.04 341.86 396.2 342.5 396.51 342.97ZM440.55 342.97C440.71 343.29 441.03 343.76 441.5 344.08C441.98 344.4 442.46 344.55 443.09 344.71C442.61 345.82 441.98 346.61 441.5 346.93C441.19 347.09 440.87 347.25 440.71 347.41C440.08 347.56 438.97 347.72 437.54 347.72C436.12 347.72 434.69 347.25 433.43 346.46C432.95 346.14 432.48 345.5 432.16 344.71C431.84 344.08 431.37 343.29 431.05 342.18C430.89 341.07 430.57 339.49 430.42 337.74C429.31 340.12 428.04 342.02 426.61 343.45C425.35 344.71 423.92 345.82 422.65 346.46C421.23 347.25 419.64 347.88 418.06 348.04C416.16 348.2 414.26 347.88 412.36 347.09C410.61 346.3 409.19 345.03 407.92 343.29C406.81 341.54 405.86 339.49 405.23 337.11C404.59 334.73 404.44 331.88 404.59 328.87C404.75 325.7 405.39 322.85 406.5 320.32C407.45 317.78 408.71 315.56 410.14 313.66C411.56 311.76 412.99 310.02 414.57 308.75C416.16 307.33 417.58 306.22 419.01 305.43C420.44 304.48 421.7 303.84 422.81 303.37C423.92 302.89 424.55 302.57 424.87 302.57C425.66 302.42 426.46 302.26 427.09 302.42C427.72 302.42 428.2 302.89 428.67 303.52C428.83 303.68 428.99 304 429.31 304.32C429.47 304.63 429.62 305.11 429.94 305.58C430.1 306.06 430.42 306.53 430.57 307.17C428.67 307.96 426.93 309.07 425.35 310.02C423.76 310.97 422.18 312.24 420.75 313.82C419.49 315.25 418.22 317.15 417.27 319.21C416.32 321.27 415.52 323.96 414.89 326.97C414.1 330.77 414.26 333.94 415.52 336.16C416.79 338.53 418.38 339.49 420.59 339.17C421.86 338.85 423.13 338.06 424.24 336.95C425.19 336 426.3 334.57 427.41 332.67C428.51 330.77 429.62 328.24 430.73 324.91C431.05 320.16 431.37 316.51 431.68 313.82C432 311.13 432.32 309.07 432.48 307.64C432.79 306.06 432.95 304.95 433.11 304.32C433.27 304 433.74 303.52 434.53 303.21C435.17 302.89 435.96 302.57 436.91 302.26C437.7 302.1 438.5 301.94 439.29 301.94C439.92 301.94 440.4 301.94 440.71 301.94C440.87 301.94 440.87 303.05 440.87 304.95C440.87 306.69 440.87 309.07 440.71 311.92C440.71 314.61 440.55 317.62 440.4 320.95C440.24 324.12 440.08 327.13 439.92 330.14C439.92 332.99 439.76 335.52 439.76 337.74C439.6 339.49 439.76 340.75 439.92 341.39C440.08 341.86 440.24 342.5 440.55 342.97ZM457.82 347.09C456.08 346.3 454.5 344.87 453.07 343.29C451.64 341.54 450.38 339.33 449.43 336.79C448.48 334.1 448 331.09 448 327.6C448 322.38 448.63 318.26 450.06 314.77C451.33 311.29 452.91 308.59 454.81 306.53C456.71 304.48 458.93 302.89 461.15 302.1C463.37 301.31 465.43 300.83 467.33 300.83C469.23 300.83 470.81 301.15 472.08 301.94C473.35 302.57 474.46 303.37 475.41 304.16C475.41 303.94 475.41 302.16 475.41 301.94C475.88 301.62 476.36 301.15 476.99 300.83C477.62 300.51 478.26 300.36 478.89 300.2C479.52 300.04 480.16 299.88 480.95 299.88C481.12 299.88 482.52 299.88 482.69 299.88C483.17 299.88 483.64 300.04 484.12 300.04C484.59 300.04 485.07 300.36 485.23 300.67C484.75 310.97 484.44 319.21 484.12 325.54C483.8 331.88 483.64 336.79 483.49 340.28C483.33 344.4 483.17 347.41 483.01 349.31C482.85 352.63 482.38 355.8 481.74 358.97C481.11 362.3 480 365.15 478.42 367.84C476.99 370.38 474.93 372.44 472.55 374.02C470.18 375.6 467.17 376.4 463.68 376.4C460.67 376.4 458.14 375.76 456.24 374.65C454.5 373.54 453.07 371.96 451.96 370.38C451.01 368.63 450.38 366.89 450.06 364.83C449.74 362.93 449.58 361.19 449.58 359.6C449.58 359.29 449.74 358.65 450.22 357.86C450.69 357.07 451.33 356.28 452.12 355.33C452.91 354.53 454.02 353.9 455.29 353.27C456.55 352.63 457.98 352.32 459.56 352.16C458.93 354.22 458.46 356.12 458.3 357.86C458.14 358.81 458.14 359.76 458.14 360.71C458.14 363.25 458.61 365.47 459.72 367.21C460.67 368.95 462.26 369.74 464.48 369.74C466.69 369.74 468.59 368.79 470.02 366.73C471.45 364.83 472.55 362.61 473.19 359.76C473.98 357.07 474.46 354.22 474.77 351.37C475.09 348.51 475.25 345.98 475.25 343.92C475.25 343.59 475.25 340.93 475.25 340.59C474.77 341.39 474.14 342.34 473.5 343.29C472.87 344.24 472.08 345.03 471.13 345.82C470.18 346.61 469.07 347.25 467.8 347.72C466.06 348.04 464.63 348.36 462.89 348.36C461.31 348.36 459.56 347.88 457.82 347.09ZM463.84 309.07C462.73 310.18 461.62 311.76 460.67 313.82C459.72 315.72 458.93 317.78 458.46 320.32C457.98 322.69 457.66 325.23 457.66 327.6C457.66 329.19 457.66 330.77 457.82 332.36C457.98 333.94 458.46 335.52 458.93 336.95C459.56 338.22 460.36 339.33 461.31 340.28C462.26 341.07 463.52 341.54 465.11 341.54C466.22 341.54 467.33 341.07 468.44 340.12C469.23 339.49 470.18 338.22 470.97 336.79C471.92 335.21 472.71 332.99 473.19 330.14C473.82 330.77 474.3 331.41 474.61 331.88C474.93 332.36 475.25 332.99 475.56 333.47C475.56 332.83 475.72 332.04 475.72 331.25C475.72 330.46 475.88 329.35 475.88 328.4C475.88 326.34 475.72 323.96 475.56 321.58C475.41 319.05 474.93 316.83 474.3 314.77C473.82 312.71 472.87 311.13 471.76 309.7C470.65 307.96 469.39 307.33 467.64 307.33C466.38 307.33 464.95 307.96 463.84 309.07ZM526.89 342.97C527.05 343.29 527.37 343.76 527.84 344.08C528.32 344.4 528.79 344.55 529.43 344.71C528.95 345.82 528.32 346.61 527.84 346.93C527.52 347.09 527.21 347.25 527.05 347.41C526.42 347.56 525.31 347.72 523.88 347.72C522.46 347.72 521.03 347.25 519.76 346.46C519.29 346.14 518.81 345.5 518.5 344.71C518.18 344.08 517.7 343.29 517.39 342.18C517.23 341.07 516.91 339.49 516.75 337.74C515.64 340.12 514.38 342.02 512.95 343.45C511.68 344.71 510.26 345.82 508.99 346.46C507.56 347.25 505.98 347.88 504.4 348.04C502.5 348.2 500.59 347.88 498.69 347.09C496.95 346.3 495.52 345.03 494.26 343.29C493.15 341.54 492.2 339.49 491.56 337.11C490.93 334.73 490.77 331.88 490.93 328.87C491.09 325.7 491.72 322.85 492.83 320.32C493.78 317.78 495.05 315.56 496.48 313.66C497.9 311.76 499.33 310.02 500.91 308.75C502.5 307.33 503.92 306.22 505.35 305.43C506.77 304.48 508.04 303.84 509.15 303.37C510.26 302.89 510.89 302.57 511.21 302.57C512 302.42 512.79 302.26 513.43 302.42C514.06 302.42 514.53 302.89 515.01 303.52C515.17 303.68 515.33 304 515.64 304.32C515.8 304.63 515.96 305.11 516.28 305.58C516.44 306.06 516.75 306.53 516.91 307.17C515.01 307.96 513.27 309.07 511.68 310.02C510.1 310.97 508.51 312.24 507.09 313.82C505.82 315.25 504.55 317.15 503.6 319.21C502.65 321.27 501.86 323.96 501.23 326.97C500.44 330.77 500.59 333.94 501.86 336.16C503.13 338.53 504.87 339.49 506.93 339.17C508.2 338.85 509.47 338.06 510.57 336.95C511.52 336 512.63 334.57 513.74 332.67C514.85 330.77 515.96 328.24 517.07 324.91C517.39 320.16 517.7 316.51 518.02 313.82C518.34 311.13 518.65 309.07 518.81 307.64C519.13 306.06 519.29 304.95 519.45 304.32C519.6 304 520.08 303.52 520.87 303.21C521.5 302.89 522.3 302.57 523.25 302.26C524.04 302.1 524.83 301.94 525.62 301.94C526.26 301.94 526.73 301.94 527.05 301.94C527.21 301.94 527.21 303.05 527.21 304.95C527.21 306.69 527.21 309.07 527.05 311.92C527.05 314.61 526.89 317.62 526.73 320.95C526.57 324.12 526.42 327.13 526.26 330.14C526.26 332.99 526.1 335.52 526.1 337.74C526.1 339.49 526.1 340.75 526.26 341.39C526.42 341.86 526.57 342.5 526.89 342.97Z" id="iaqKTILLo" fill="white" fill-opacity="1" filter="url(#shadow13328177)"></path></g><use xlink:href="#c28Hfrt5aL" opacity="1" fill="#fdc206" fill-opacity="1"></use></g></g></g></g></svg>